<svg version="1.1" viewBox="0.0 0.0 544.8661417322835 395.8556430446194" fill="none" stroke="none" stroke-linecap="square" stroke-miterlimit="10" xmlns:xlink="http://www.w3.org/1999/xlink" xmlns="http://www.w3.org/2000/svg"><clipPath id="p.0"><path d="m0 0l544.86615 0l0 395.85565l-544.86615 0l0 -395.85565z" clip-rule="nonzero"/></clipPath><g clip-path="url(#p.0)"><path fill="#000000" fill-opacity="0.0" d="m0 0l544.86615 0l0 395.85565l-544.86615 0z" fill-rule="evenodd"/><path fill="#d0e0e3" d="m48.86079 345.1506l152.28346 0l0 43.307068l-152.28346 0z" fill-rule="evenodd"/><path stroke="#000000" stroke-width="1.0" stroke-linejoin="round" stroke-linecap="butt" d="m48.86079 345.1506l152.28346 0l0 43.307068l-152.28346 0z" fill-rule="evenodd"/><path fill="#000000" d="m82.45205 369.33353q0 1.109375 -0.390625 2.171875q-0.375 1.046875 -1.203125 1.734375q-0.828125 0.671875 -2.1875 0.671875q-1.890625 0 -2.75 -1.40625l0 4.125l1.921875 0l0 1.0624695l-4.6875 0l0 -1.0624695l1.46875 0l0 -10.140625l-1.5 0l0 -1.0625l2.796875 0l0 1.734375q0.375 -0.75 1.078125 -1.328125q0.71875 -0.578125 1.875 -0.578125q1.609375 0 2.59375 1.078125q0.984375 1.078125 0.984375 3.0zm-1.375 0.125q0 -1.5 -0.734375 -2.28125q-0.71875 -0.796875 -1.796875 -0.796875q-1.125 0 -1.859375 0.890625q-0.71875 0.875 -0.765625 1.828125l0 1.234375q0 1.046875 0.734375 1.75q0.734375 0.703125 1.75 0.703125q1.40625 0 2.03125 -1.0q0.640625 -1.015625 0.640625 -2.328125zm3.6046906 -3.40625q0.65625 -0.421875 1.375 -0.609375q0.734375 -0.1875 1.546875 -0.1875q2.96875 0 2.96875 2.78125l0 3.953125q0 0.890625 0.703125 0.890625q0.328125 0 0.5625 -0.109375l0.015625 0.859375q-0.5 0.28125 -1.078125 0.28125q-1.46875 0 -1.515625 -1.6875l0 -0.03125q-0.390625 0.671875 -1.109375 1.203125q-0.71875 0.515625 -1.71875 0.515625q-0.828125 0 -1.671875 -0.5q-0.84375 -0.515625 -0.84375 -1.828125q0 -1.578125 1.234375 -2.0625q1.25 -0.5 2.640625 -0.5q0.375 0 0.75 0.015625q0.390625 0.015625 0.71875 0.0625l0 -0.75q0 -0.890625 -0.390625 -1.453125q-0.375 -0.5625 -1.484375 -0.5625q-0.921875 0 -1.609375 0.34375l-0.3125 1.4375l-1.078125 -0.140625l0.296875 -1.921875zm4.578125 4.5625l0 -0.640625q-0.34375 -0.015625 -0.734375 -0.046875q-0.390625 -0.046875 -0.8125 -0.046875q-0.921875 0 -1.6875 0.296875q-0.75 0.28125 -0.75 1.25q0 0.796875 0.5 1.109375q0.5 0.296875 1.046875 0.296875q0.859375 0 1.609375 -0.59375q0.765625 -0.609375 0.828125 -1.625zm8.214096 -5.34375q0.890625 0 1.421875 0.4375l0.3125 2.078125l-1.0625 0.140625l-0.3125 -1.421875q-0.328125 -0.109375 -0.640625 -0.109375q-0.71875 0 -1.203125 0.609375q-0.484375 0.59375 -0.484375 1.5625l0 4.09375l1.921875 0l0 1.0625l-4.6875 0l0 -1.0625l1.453125 0l0 -6.171875l-1.5 0l0 -1.0625l2.734375 0l0 1.484375q0.234375 -0.6875 0.78125 -1.15625q0.5625 -0.484375 1.265625 -0.484375zm10.648132 6.0625q-0.15625 1.0625 -1.0625 1.828125q-0.890625 0.75 -2.421875 0.75q-1.75 0 -2.84375 -1.09375q-1.078125 -1.109375 -1.078125 -3.125q0 -1.9375 1.03125 -3.1875q1.03125 -1.25 2.78125 -1.25q1.71875 0 2.609375 1.078125q0.890625 1.078125 0.921875 2.5625q0 0.484375 -0.125 0.984375l-5.828125 0q0.109375 2.90625 2.625 2.90625q0.984375 0 1.546875 -0.453125q0.5625 -0.46875 0.75 -1.234375l1.09375 0.234375zm-1.453125 -2.421875q0.09375 -0.9375 -0.4375 -1.75q-0.53125 -0.828125 -1.734375 -0.828125q-1.15625 0 -1.703125 0.765625q-0.546875 0.765625 -0.671875 1.8125l4.546875 0zm12.627808 4.8125l-4.1875 0l0 -1.0625l1.4375 0l0 -3.859375q0 -1.34375 -0.546875 -1.890625q-0.546875 -0.5625 -1.375 -0.5625q-1.125 0 -1.8125 0.75q-0.671875 0.734375 -0.703125 1.6875l0 3.875l1.453125 0l0 1.0625l-4.21875 0l0 -1.0625l1.453125 0l0 -6.171875l-1.5 0l0 -1.0625l2.8125 0l0 1.46875q0.890625 -1.640625 2.90625 -1.640625q1.203125 0 2.015625 0.75q0.828125 0.734375 0.828125 2.40625l0 4.25l1.4375 0l0 1.0625zm7.002533 -2.234375q-0.328125 2.421875 -2.625 2.421875q-1.25 0 -1.921875 -0.703125q-0.65625 -0.71875 -0.65625 -1.921875l0 -4.8125l-1.34375 0l0 -1.046875l1.34375 0l0 -2.671875l1.296875 0l0 2.671875l3.25 0l0 1.046875l-3.25 0l0 4.640625q0 0.75 0.328125 1.203125q0.328125 0.453125 1.078125 0.453125q0.484375 0 0.90625 -0.296875q0.421875 -0.296875 0.609375 -1.3125l0.984375 0.328125zm1.155838 2.234375l0 -2.015625l1.8124924 0l0 2.015625l-1.8124924 0zm16.180656 -7.234375l-0.953125 0l-2.453125 7.234375l-1.0 0l-2.546875 -6.34375l-0.078125 0l-2.484375 6.34375l-0.96875 0l-2.546875 -7.234375l-0.90625 0l0 -1.0625l3.90625 0l0 1.0625l-1.578125 0l1.734375 5.234375l0.09375 0l2.46875 -6.296875l0.875 0l2.59375 6.296875l0.09375 0l1.53125 -5.234375l-1.515625 0l0 -1.0625l3.734375 0l0 1.0625zm1.6969452 -0.4375q0.65625 -0.421875 1.375 -0.609375q0.734375 -0.1875 1.546875 -0.1875q2.96875 0 2.96875 2.78125l0 3.953125q0 0.890625 0.703125 0.890625q0.328125 0 0.5625 -0.109375l0.015625 0.859375q-0.5 0.28125 -1.078125 0.28125q-1.46875 0 -1.515625 -1.6875l0 -0.03125q-0.390625 0.671875 -1.109375 1.203125q-0.71875 0.515625 -1.71875 0.515625q-0.828125 0 -1.671875 -0.5q-0.84375 -0.515625 -0.84375 -1.828125q0 -1.578125 1.234375 -2.0625q1.25 -0.5 2.640625 -0.5q0.375 0 0.75 0.015625q0.390625 0.015625 0.71875 0.0625l0 -0.75q0 -0.890625 -0.390625 -1.453125q-0.375 -0.5625 -1.484375 -0.5625q-0.921875 0 -1.609375 0.34375l-0.3125 1.4375l-1.078125 -0.140625l0.296875 -1.921875zm4.578125 4.5625l0 -0.640625q-0.34375 -0.015625 -0.734375 -0.046875q-0.390625 -0.046875 -0.8125 -0.046875q-0.921875 0 -1.6875 0.296875q-0.75 0.28125 -0.75 1.25q0 0.796875 0.5 1.109375q0.5 0.296875 1.046875 0.296875q0.859375 0 1.609375 -0.59375q0.765625 -0.609375 0.828125 -1.625zm10.354721 0.703125q0 1.21875 -1.015625 1.90625q-1.015625 0.6875 -2.5 0.6875q-0.875 0 -1.75 -0.234375q-0.859375 -0.234375 -1.40625 -0.59375l0.265625 -1.875l1.046875 0.109375l-0.0625 1.09375q0.859375 0.421875 1.84375 0.421875q0.875 0 1.546875 -0.34375q0.6875 -0.34375 0.6875 -1.0625q0 -0.6875 -0.515625 -0.96875q-0.515625 -0.28125 -1.296875 -0.40625q-0.78125 -0.140625 -1.5625 -0.3125q-0.78125 -0.1875 -1.3125 -0.640625q-0.515625 -0.46875 -0.515625 -1.4375q0 -1.328125 0.96875 -1.859375q0.96875 -0.546875 2.109375 -0.546875q0.859375 0 1.609375 0.234375q0.765625 0.21875 1.28125 0.53125l0.21875 1.9375l-1.09375 0.125l-0.203125 -1.34375q-0.78125 -0.40625 -1.703125 -0.40625q-0.78125 0 -1.28125 0.296875q-0.5 0.296875 -0.5 0.9375q0 0.65625 0.515625 0.921875q0.53125 0.265625 1.296875 0.390625q0.765625 0.125 1.53125 0.3125q0.765625 0.1875 1.28125 0.671875q0.515625 0.46875 0.515625 1.453125zm16.671432 2.40625l-3.984375 0l0 -1.0625l1.21875 0l0 -3.859375q0 -1.34375 -0.53125 -1.890625q-0.53125 -0.5625 -1.359375 -0.5625q-1.125 0 -1.75 0.859375q-0.609375 0.859375 -0.625 1.640625l0 3.8125l1.421875 0l0 1.0625l-3.953125 0l0 -1.0625l1.203125 0l0 -3.859375q0 -1.359375 -0.53125 -1.90625q-0.515625 -0.546875 -1.3125 -0.546875q-1.15625 0 -1.765625 0.84375q-0.609375 0.828125 -0.640625 1.625l0 3.84375l1.515625 0l0 1.0625l-4.28125 0l0 -1.0625l1.453125 0l0 -6.171875l-1.46875 0l0 -1.0625l2.78125 0l0 1.546875q0.40625 -0.75 1.09375 -1.234375q0.6875 -0.484375 1.671875 -0.484375q0.984375 0 1.6875 0.484375q0.71875 0.484375 0.984375 1.515625q0.375 -0.875 1.109375 -1.4375q0.734375 -0.5625 1.828125 -0.5625q1.1875 0 1.984375 0.75q0.796875 0.734375 0.796875 2.40625l0 4.25l1.453125 0l0 1.0625z" fill-rule="nonzero"/><path fill="#d9ead3" d="m48.59458 140.4262l152.28348 0l0 43.307083l-152.28348 0z" fill-rule="evenodd"/><path stroke="#000000" stroke-width="1.0" stroke-linejoin="round" stroke-linecap="butt" d="m48.59458 140.4262l152.28348 0l0 43.307083l-152.28348 0z" fill-rule="evenodd"/><path fill="#000000" d="m70.428185 163.4189l-1.0 0l-3.046875 7.234375l-1.015625 0l-3.171875 -7.234375l-0.96875 0l0 -1.0625l3.828125 0l0 1.0625l-1.4375 0l2.3125 5.46875l0.109375 0l2.078125 -5.46875l-1.328125 0l0 -1.0625l3.640625 0l0 1.0625zm2.1210327 -3.21875l0 -1.6875l1.421875 0l0 1.6875l-1.421875 0zm2.890625 10.453125l-4.203125 0l0 -1.0625l1.453125 0l0 -6.171875l-1.5 0l0 -1.0625l2.796875 0l0 7.234375l1.453125 0l0 1.0625zm5.67688 -8.453125q0.890625 0 1.421875 0.4375l0.3125 2.078125l-1.0625 0.140625l-0.3125 -1.421875q-0.328125 -0.109375 -0.640625 -0.109375q-0.71875 0 -1.203125 0.609375q-0.484375 0.59375 -0.484375 1.5625l0 4.09375l1.921875 0l0 1.0625l-4.6875 0l0 -1.0625l1.453125 0l0 -6.171875l-1.5 0l0 -1.0625l2.734375 0l0 1.484375q0.234375 -0.6875 0.78125 -1.15625q0.5625 -0.484375 1.265625 -0.484375zm9.366882 6.21875q-0.328125 2.421875 -2.625 2.421875q-1.25 0 -1.921875 -0.703125q-0.65625 -0.71875 -0.65625 -1.921875l0 -4.8125l-1.34375 0l0 -1.046875l1.34375 0l0 -2.671875l1.296875 0l0 2.671875l3.25 0l0 1.046875l-3.25 0l0 4.640625q0 0.75 0.328125 1.203125q0.328125 0.453125 1.078125 0.453125q0.484375 0 0.90625 -0.296875q0.421875 -0.296875 0.609375 -1.3125l0.984375 0.328125zm10.280838 2.234375l-2.796875 0l0 -1.5625q-0.390625 0.78125 -1.15625 1.265625q-0.75 0.484375 -1.734375 0.484375q-1.21875 0 -2.046875 -0.75q-0.828125 -0.765625 -0.828125 -2.421875l0 -4.25l-1.453125 0l0 -1.0625l2.75 0l0 4.9375q0 1.34375 0.5625 1.890625q0.5625 0.53125 1.4375 0.53125q1.0625 0 1.734375 -0.796875q0.6875 -0.796875 0.734375 -1.703125l0 -3.796875l-1.734375 0l0 -1.0625l3.03125 0l0 7.234375l1.5 0l0 1.0625zm1.794281 -7.671875q0.65625 -0.421875 1.375 -0.609375q0.734375 -0.1875 1.546875 -0.1875q2.96875 0 2.96875 2.78125l0 3.953125q0 0.890625 0.703125 0.890625q0.328125 0 0.5625 -0.109375l0.015625 0.859375q-0.5 0.28125 -1.078125 0.28125q-1.46875 0 -1.515625 -1.6875l0 -0.03125q-0.390625 0.671875 -1.109375 1.203125q-0.71875 0.515625 -1.71875 0.515625q-0.828125 0 -1.671875 -0.5q-0.84375 -0.515625 -0.84375 -1.828125q0 -1.578125 1.234375 -2.0625q1.25 -0.5 2.640625 -0.5q0.375 0 0.75 0.015625q0.390625 0.015625 0.71875 0.0625l0 -0.75q0 -0.890625 -0.390625 -1.453125q-0.375 -0.5625 -1.484375 -0.5625q-0.921875 0 -1.609375 0.34375l-0.3125 1.4375l-1.078125 -0.140625l0.296875 -1.921875zm4.578125 4.5625l0 -0.640625q-0.34375 -0.015625 -0.734375 -0.046875q-0.390625 -0.046875 -0.8125 -0.046875q-0.921875 0 -1.6875 0.296875q-0.75 0.28125 -0.75 1.25q0 0.796875 0.5 1.109375q0.5 0.296875 1.046875 0.296875q0.859375 0 1.609375 -0.59375q0.765625 -0.609375 0.828125 -1.625zm7.510971 3.109375l-4.21875 0l0 -1.0625l1.453125 0l0 -10.703125l-1.46875 0l0 -1.0625l2.78125 0l0 11.765625l1.453125 0l0 1.0625zm2.3219452 -10.453125l0 -1.6875l1.421875 0l0 1.6875l-1.421875 0zm2.890625 10.453125l-4.203125 0l0 -1.0625l1.453125 0l0 -6.171875l-1.5 0l0 -1.0625l2.796875 0l0 7.234375l1.453125 0l0 1.0625zm8.08313 0l-6.96875 0l-0.0625 -0.796875l5.21875 -6.4375l-3.90625 0l-0.25 1.65625l-1.046875 -0.125l0.234375 -2.59375l6.671875 0l0.0625 0.78125l-5.265625 6.453125l4.265625 0l0.4375 -1.6875l1.0624924 0.171875l-0.45311737 2.578125zm9.062752 -2.390625q-0.15625 1.0625 -1.0625 1.828125q-0.890625 0.75 -2.421875 0.75q-1.75 0 -2.84375 -1.09375q-1.078125 -1.109375 -1.078125 -3.125q0 -1.9375 1.03125 -3.1875q1.03125 -1.25 2.78125 -1.25q1.71875 0 2.609375 1.078125q0.890625 1.078125 0.921875 2.5625q0 0.484375 -0.125 0.984375l-5.828125 0q0.109375 2.90625 2.625 2.90625q0.984375 0 1.546875 -0.453125q0.5625 -0.46875 0.75 -1.234375l1.09375 0.234375zm-1.453125 -2.421875q0.09375 -0.9375 -0.4375 -1.75q-0.53125 -0.828125 -1.734375 -0.828125q-1.15625 0 -1.703125 0.765625q-0.546875 0.765625 -0.671875 1.8125l4.546875 0zm3.1746826 4.8125l0 -2.015625l1.8125 0l0 2.015625l-1.8125 0zm16.180664 -7.234375l-0.953125 0l-2.453125 7.234375l-1.0 0l-2.546875 -6.34375l-0.078125 0l-2.484375 6.34375l-0.96875 0l-2.546875 -7.234375l-0.90625 0l0 -1.0625l3.90625 0l0 1.0625l-1.578125 0l1.734375 5.234375l0.09375 0l2.46875 -6.296875l0.875 0l2.59375 6.296875l0.09375 0l1.53125 -5.234375l-1.515625 0l0 -1.0625l3.734375 0l0 1.0625zm1.6969452 -0.4375q0.65625 -0.421875 1.375 -0.609375q0.734375 -0.1875 1.546875 -0.1875q2.96875 0 2.96875 2.78125l0 3.953125q0 0.890625 0.703125 0.890625q0.328125 0 0.5625 -0.109375l0.015625 0.859375q-0.5 0.28125 -1.078125 0.28125q-1.46875 0 -1.515625 -1.6875l0 -0.03125q-0.390625 0.671875 -1.109375 1.203125q-0.71875 0.515625 -1.71875 0.515625q-0.828125 0 -1.671875 -0.5q-0.84375 -0.515625 -0.84375 -1.828125q0 -1.578125 1.234375 -2.0625q1.25 -0.5 2.640625 -0.5q0.375 0 0.75 0.015625q0.390625 0.015625 0.71875 0.0625l0 -0.75q0 -0.890625 -0.390625 -1.453125q-0.375 -0.5625 -1.484375 -0.5625q-0.921875 0 -1.609375 0.34375l-0.3125 1.4375l-1.078125 -0.140625l0.296875 -1.921875zm4.578125 4.5625l0 -0.640625q-0.34375 -0.015625 -0.734375 -0.046875q-0.390625 -0.046875 -0.8125 -0.046875q-0.921875 0 -1.6875 0.296875q-0.75 0.28125 -0.75 1.25q0 0.796875 0.5 1.109375q0.5 0.296875 1.046875 0.296875q0.859375 0 1.609375 -0.59375q0.765625 -0.609375 0.828125 -1.625zm10.354721 0.703125q0 1.21875 -1.015625 1.90625q-1.015625 0.6875 -2.5 0.6875q-0.875 0 -1.75 -0.234375q-0.859375 -0.234375 -1.40625 -0.59375l0.265625 -1.875l1.046875 0.109375l-0.0625 1.09375q0.859375 0.421875 1.84375 0.421875q0.875 0 1.546875 -0.34375q0.6875 -0.34375 0.6875 -1.0625q0 -0.6875 -0.515625 -0.96875q-0.515625 -0.28125 -1.296875 -0.40625q-0.78125 -0.140625 -1.5625 -0.3125q-0.78125 -0.1875 -1.3125 -0.640625q-0.515625 -0.46875 -0.515625 -1.4375q0 -1.328125 0.96875 -1.859375q0.96875 -0.546875 2.109375 -0.546875q0.859375 0 1.609375 0.234375q0.765625 0.21875 1.28125 0.53125l0.21875 1.9375l-1.09375 0.125l-0.203125 -1.34375q-0.78125 -0.40625 -1.703125 -0.40625q-0.78125 0 -1.28125 0.296875q-0.5 0.296875 -0.5 0.9375q0 0.65625 0.515625 0.921875q0.53125 0.265625 1.296875 0.390625q0.765625 0.125 1.53125 0.3125q0.765625 0.1875 1.28125 0.671875q0.515625 0.46875 0.515625 1.453125zm16.671432 2.40625l-3.984375 0l0 -1.0625l1.21875 0l0 -3.859375q0 -1.34375 -0.53125 -1.890625q-0.53125 -0.5625 -1.359375 -0.5625q-1.125 0 -1.75 0.859375q-0.609375 0.859375 -0.625 1.640625l0 3.8125l1.421875 0l0 1.0625l-3.953125 0l0 -1.0625l1.203125 0l0 -3.859375q0 -1.359375 -0.53125 -1.90625q-0.515625 -0.546875 -1.3125 -0.546875q-1.15625 0 -1.765625 0.84375q-0.609375 0.828125 -0.640625 1.625l0 3.84375l1.515625 0l0 1.0625l-4.28125 0l0 -1.0625l1.453125 0l0 -6.171875l-1.46875 0l0 -1.0625l2.78125 0l0 1.546875q0.40625 -0.75 1.09375 -1.234375q0.6875 -0.484375 1.671875 -0.484375q0.984375 0 1.6875 0.484375q0.71875 0.484375 0.984375 1.515625q0.375 -0.875 1.109375 -1.4375q0.734375 -0.5625 1.828125 -0.5625q1.1875 0 1.984375 0.75q0.796875 0.734375 0.796875 2.40625l0 4.25l1.453125 0l0 1.0625z" fill-rule="nonzero"/><path fill="#000000" fill-opacity="0.0" d="m124.73631 345.9065l0 -162.17322" fill-rule="evenodd"/><path stroke="#000000" stroke-width="1.0" stroke-linejoin="round" stroke-linecap="butt" d="m124.73631 345.9065l0 -156.17323" fill-rule="evenodd"/><path fill="#000000" stroke="#000000" stroke-width="1.0" stroke-linecap="butt" d="m126.38805 189.73326l-1.6517334 -4.538086l-1.6517334 4.538086z" fill-rule="evenodd"/><path fill="#ead1dc" d="m146.97246 242.79102l152.28346 0l0 43.3071l-152.28346 0z" fill-rule="evenodd"/><path stroke="#000000" stroke-width="1.0" stroke-linejoin="round" stroke-linecap="butt" d="m146.97246 242.79102l152.28346 0l0 43.3071l-152.28346 0z" fill-rule="evenodd"/><path fill="#000000" d="m185.9973 270.22122q-0.171875 1.078125 -0.984375 2.03125q-0.8125 0.953125 -2.515625 0.953125q-1.71875 0 -2.75 -1.109375q-1.03125 -1.109375 -1.03125 -3.109375q0 -1.71875 0.96875 -3.078125q0.984375 -1.359375 2.921875 -1.359375q0.8125 0 1.5 0.1875q0.703125 0.1875 1.328125 0.671875l0.328125 2.0l-1.09375 0.125l-0.3125 -1.40625q-0.75 -0.453125 -1.765625 -0.453125q-1.328125 0 -1.90625 0.953125q-0.578125 0.9375 -0.578125 2.28125q0 1.5 0.640625 2.34375q0.65625 0.828125 1.890625 0.828125q1.875 0 2.234375 -2.109375l1.125 0.25zm10.916061 2.796875l-4.21875 0l0 -1.0625l1.453125 0l0 -3.859375q0 -1.34375 -0.546875 -1.890625q-0.546875 -0.5625 -1.40625 -0.5625q-1.078125 0 -1.765625 0.75q-0.6875 0.734375 -0.71875 1.640625l0 3.921875l1.4375 0l0 1.0625l-4.203125 0l0 -1.0625l1.4375 0l0 -10.703125l-1.4375 0l0 -1.0625l2.765625 0l0 6.015625q0.921875 -1.65625 2.90625 -1.65625q1.21875 0 2.03125 0.75q0.828125 0.734375 0.828125 2.40625l0 4.25l1.4375 0l0 1.0625zm2.1193848 -10.453125l0 -1.6875l1.421875 0l0 1.6875l-1.421875 0zm2.890625 10.453125l-4.203125 0l0 -1.0625l1.453125 0l0 -6.171875l-1.5 0l0 -1.0625l2.796875 0l0 7.234375l1.453125 0l0 1.0625zm4.973755 0l-4.21875 0l0 -1.0625l1.453125 0l0 -10.703125l-1.46875 0l0 -1.0625l2.78125 0l0 11.765625l1.453125 0l0 1.0625zm10.353195 0l-2.75 0l0 -1.671875q-0.40625 0.734375 -1.125 1.296875q-0.703125 0.5625 -1.84375 0.5625q-1.59375 0 -2.578125 -1.09375q-0.984375 -1.09375 -0.984375 -3.03125q0 -1.65625 0.859375 -3.09375q0.859375 -1.4375 2.890625 -1.4375q1.953125 0 2.78125 1.515625l0 -4.8125l-2.015625 0l0 -1.0625l3.328125 0l0 11.765625l1.4375 0l0 1.0625zm-2.75 -3.671875l0 -1.328125q-0.03125 -1.046875 -0.765625 -1.6875q-0.71875 -0.65625 -1.71875 -0.65625q-1.375 0 -2.015625 1.015625q-0.640625 1.0 -0.640625 2.296875q0 1.53125 0.71875 2.3125q0.71875 0.78125 1.796875 0.78125q1.125 0 1.859375 -0.90625q0.734375 -0.90625 0.765625 -1.828125zm4.070404 3.671875l0 -2.015625l1.8125 0l0 2.015625l-1.8125 0zm16.180664 -7.234375l-0.953125 0l-2.453125 7.234375l-1.0 0l-2.546875 -6.34375l-0.078125 0l-2.484375 6.34375l-0.96875 0l-2.546875 -7.234375l-0.90625 0l0 -1.0625l3.90625 0l0 1.0625l-1.578125 0l1.734375 5.234375l0.09375 0l2.46875 -6.296875l0.875 0l2.59375 6.296875l0.09375 0l1.53125 -5.234375l-1.515625 0l0 -1.0625l3.734375 0l0 1.0625zm1.6969452 -0.4375q0.65625 -0.421875 1.375 -0.609375q0.734375 -0.1875 1.546875 -0.1875q2.96875 0 2.96875 2.78125l0 3.953125q0 0.890625 0.703125 0.890625q0.328125 0 0.5625 -0.109375l0.015625 0.859375q-0.5 0.28125 -1.078125 0.28125q-1.46875 0 -1.515625 -1.6875l0 -0.03125q-0.390625 0.671875 -1.109375 1.203125q-0.71875 0.515625 -1.71875 0.515625q-0.828125 0 -1.671875 -0.5q-0.84375 -0.515625 -0.84375 -1.828125q0 -1.578125 1.234375 -2.0625q1.25 -0.5 2.640625 -0.5q0.375 0 0.75 0.015625q0.390625 0.015625 0.71875 0.0625l0 -0.75q0 -0.890625 -0.390625 -1.453125q-0.375 -0.5625 -1.484375 -0.5625q-0.921875 0 -1.609375 0.34375l-0.3125 1.4375l-1.078125 -0.140625l0.296875 -1.921875zm4.578125 4.5625l0 -0.640625q-0.34375 -0.015625 -0.734375 -0.046875q-0.390625 -0.046875 -0.8125 -0.046875q-0.921875 0 -1.6875 0.296875q-0.75 0.28125 -0.75 1.25q0 0.796875 0.5 1.109375q0.5 0.296875 1.046875 0.296875q0.859375 0 1.609375 -0.59375q0.765625 -0.609375 0.828125 -1.625zm10.354721 0.703125q0 1.21875 -1.015625 1.90625q-1.015625 0.6875 -2.5 0.6875q-0.875 0 -1.75 -0.234375q-0.859375 -0.234375 -1.40625 -0.59375l0.265625 -1.875l1.046875 0.109375l-0.0625 1.09375q0.859375 0.421875 1.84375 0.421875q0.875 0 1.546875 -0.34375q0.6875 -0.34375 0.6875 -1.0625q0 -0.6875 -0.515625 -0.96875q-0.515625 -0.28125 -1.296875 -0.40625q-0.78125 -0.140625 -1.5625 -0.3125q-0.78125 -0.1875 -1.3125 -0.640625q-0.515625 -0.46875 -0.515625 -1.4375q0 -1.328125 0.96875 -1.859375q0.96875 -0.546875 2.109375 -0.546875q0.859375 0 1.609375 0.234375q0.765625 0.21875 1.28125 0.53125l0.21875 1.9375l-1.09375 0.125l-0.203125 -1.34375q-0.78125 -0.40625 -1.703125 -0.40625q-0.78125 0 -1.28125 0.296875q-0.5 0.296875 -0.5 0.9375q0 0.65625 0.515625 0.921875q0.53125 0.265625 1.296875 0.390625q0.765625 0.125 1.53125 0.3125q0.765625 0.1875 1.28125 0.671875q0.515625 0.46875 0.515625 1.453125zm16.671432 2.40625l-3.984375 0l0 -1.0625l1.21875 0l0 -3.859375q0 -1.34375 -0.53125 -1.890625q-0.53125 -0.5625 -1.359375 -0.5625q-1.125 0 -1.75 0.859375q-0.609375 0.859375 -0.625 1.640625l0 3.8125l1.421875 0l0 1.0625l-3.953125 0l0 -1.0625l1.203125 0l0 -3.859375q0 -1.359375 -0.53125 -1.90625q-0.515625 -0.546875 -1.3125 -0.546875q-1.15625 0 -1.765625 0.84375q-0.609375 0.828125 -0.640625 1.625l0 3.84375l1.515625 0l0 1.0625l-4.28125 0l0 -1.0625l1.453125 0l0 -6.171875l-1.46875 0l0 -1.0625l2.78125 0l0 1.546875q0.40625 -0.75 1.09375 -1.234375q0.6875 -0.484375 1.671875 -0.484375q0.984375 0 1.6875 0.484375q0.71875 0.484375 0.984375 1.515625q0.375 -0.875 1.109375 -1.4375q0.734375 -0.5625 1.828125 -0.5625q1.1875 0 1.984375 0.75q0.796875 0.734375 0.796875 2.40625l0 4.25l1.453125 0l0 1.0625z" fill-rule="nonzero"/><path fill="#000000" fill-opacity="0.0" d="m161.12994 345.3107l61.984253 -59.212585" fill-rule="evenodd"/><path stroke="#000000" stroke-width="1.0" stroke-linejoin="round" stroke-linecap="butt" d="m161.12994 345.3107l57.64572 -55.068054" fill-rule="evenodd"/><path fill="#000000" stroke="#000000" stroke-width="1.0" stroke-linecap="butt" d="m219.91661 291.43698l2.140503 -4.329071l-4.422394 1.9403687z" fill-rule="evenodd"/><path fill="#d9ead3" d="m409.53543 147.64319l0 0c0 -3.9863892 3.231598 -7.217987 7.217987 -7.217987l88.61914 0c1.9143372 0 3.7502441 0.7604675 5.103882 2.11409c1.3536377 1.3536377 2.1141357 3.18956 2.1141357 5.103897l0 28.871109c0 3.986374 -3.2316284 7.217987 -7.2180176 7.217987l-88.61914 0c-3.9863892 0 -7.217987 -3.2316132 -7.217987 -7.217987z" fill-rule="evenodd"/><path stroke="#000000" stroke-width="1.0" stroke-linejoin="round" stroke-linecap="butt" d="m409.53543 147.64319l0 0c0 -3.9863892 3.231598 -7.217987 7.217987 -7.217987l88.61914 0c1.9143372 0 3.7502441 0.7604675 5.103882 2.11409c1.3536377 1.3536377 2.1141357 3.18956 2.1141357 5.103897l0 28.871109c0 3.986374 -3.2316284 7.217987 -7.2180176 7.217987l-88.61914 0c-3.9863892 0 -7.217987 -3.2316132 -7.217987 -7.217987z" fill-rule="evenodd"/><path fill="#000000" d="m432.1085 161.76436l-1.0 0l-3.046875 7.234375l-1.015625 0l-3.171875 -7.234375l-0.96875 0l0 -1.0625l3.828125 0l0 1.0625l-1.4375 0l2.3125 5.46875l0.109375 0l2.078125 -5.46875l-1.328125 0l0 -1.0625l3.640625 0l0 1.0625zm2.1210327 -3.21875l0 -1.6875l1.421875 0l0 1.6875l-1.421875 0zm2.890625 10.453125l-4.203125 0l0 -1.0625l1.453125 0l0 -6.171875l-1.5 0l0 -1.0625l2.796875 0l0 7.234375l1.453125 0l0 1.0625zm5.67688 -8.453125q0.890625 0 1.421875 0.4375l0.3125 2.078125l-1.0625 0.140625l-0.3125 -1.421875q-0.328125 -0.109375 -0.640625 -0.109375q-0.71875 0 -1.203125 0.609375q-0.484375 0.59375 -0.484375 1.5625l0 4.09375l1.921875 0l0 1.0625l-4.6875 0l0 -1.0625l1.453125 0l0 -6.171875l-1.5 0l0 -1.0625l2.734375 0l0 1.484375q0.234375 -0.6875 0.78125 -1.15625q0.5625 -0.484375 1.265625 -0.484375zm9.366882 6.21875q-0.328125 2.421875 -2.625 2.421875q-1.25 0 -1.921875 -0.703125q-0.65625 -0.71875 -0.65625 -1.921875l0 -4.8125l-1.34375 0l0 -1.046875l1.34375 0l0 -2.671875l1.296875 0l0 2.671875l3.25 0l0 1.046875l-3.25 0l0 4.640625q0 0.75 0.328125 1.203125q0.328125 0.453125 1.078125 0.453125q0.484375 0 0.90625 -0.296875q0.421875 -0.296875 0.609375 -1.3125l0.984375 0.328125zm10.280823 2.234375l-2.796875 0l0 -1.5625q-0.390625 0.78125 -1.15625 1.265625q-0.75 0.484375 -1.734375 0.484375q-1.21875 0 -2.046875 -0.75q-0.828125 -0.765625 -0.828125 -2.421875l0 -4.25l-1.453125 0l0 -1.0625l2.75 0l0 4.9375q0 1.34375 0.5625 1.890625q0.5625 0.53125 1.4375 0.53125q1.0625 0 1.734375 -0.796875q0.6875 -0.796875 0.734375 -1.703125l0 -3.796875l-1.734375 0l0 -1.0625l3.03125 0l0 7.234375l1.5 0l0 1.0625zm1.794281 -7.671875q0.65625 -0.421875 1.375 -0.609375q0.734375 -0.1875 1.546875 -0.1875q2.96875 0 2.96875 2.78125l0 3.953125q0 0.890625 0.703125 0.890625q0.328125 0 0.5625 -0.109375l0.015625 0.859375q-0.5 0.28125 -1.078125 0.28125q-1.46875 0 -1.515625 -1.6875l0 -0.03125q-0.390625 0.671875 -1.109375 1.203125q-0.71875 0.515625 -1.71875 0.515625q-0.828125 0 -1.671875 -0.5q-0.84375 -0.515625 -0.84375 -1.828125q0 -1.578125 1.234375 -2.0625q1.25 -0.5 2.640625 -0.5q0.375 0 0.75 0.015625q0.390625 0.015625 0.71875 0.0625l0 -0.75q0 -0.890625 -0.390625 -1.453125q-0.375 -0.5625 -1.484375 -0.5625q-0.921875 0 -1.609375 0.34375l-0.3125 1.4375l-1.078125 -0.140625l0.296875 -1.921875zm4.578125 4.5625l0 -0.640625q-0.34375 -0.015625 -0.734375 -0.046875q-0.390625 -0.046875 -0.8125 -0.046875q-0.921875 0 -1.6875 0.296875q-0.75 0.28125 -0.75 1.25q0 0.796875 0.5 1.109375q0.5 0.296875 1.046875 0.296875q0.859375 0 1.609375 -0.59375q0.765625 -0.609375 0.828125 -1.625zm7.5109863 3.109375l-4.21875 0l0 -1.0625l1.453125 0l0 -10.703125l-1.46875 0l0 -1.0625l2.78125 0l0 11.765625l1.453125 0l0 1.0625zm2.32193 -10.453125l0 -1.6875l1.421875 0l0 1.6875l-1.421875 0zm2.890625 10.453125l-4.203125 0l0 -1.0625l1.453125 0l0 -6.171875l-1.5 0l0 -1.0625l2.796875 0l0 7.234375l1.453125 0l0 1.0625zm8.08313 0l-6.96875 0l-0.0625 -0.796875l5.21875 -6.4375l-3.90625 0l-0.25 1.65625l-1.046875 -0.125l0.234375 -2.59375l6.671875 0l0.0625 0.78125l-5.265625 6.453125l4.265625 0l0.4375 -1.6875l1.0625 0.171875l-0.453125 2.578125zm9.062775 -2.390625q-0.15625 1.0625 -1.0625 1.828125q-0.890625 0.75 -2.421875 0.75q-1.75 0 -2.84375 -1.09375q-1.078125 -1.109375 -1.078125 -3.125q0 -1.9375 1.03125 -3.1875q1.03125 -1.25 2.78125 -1.25q1.71875 0 2.609375 1.078125q0.890625 1.078125 0.921875 2.5625q0 0.484375 -0.125 0.984375l-5.828125 0q0.109375 2.90625 2.625 2.90625q0.984375 0 1.546875 -0.453125q0.5625 -0.46875 0.75 -1.234375l1.09375 0.234375zm-1.453125 -2.421875q0.09375 -0.9375 -0.4375 -1.75q-0.53125 -0.828125 -1.734375 -0.828125q-1.15625 0 -1.703125 0.765625q-0.546875 0.765625 -0.671875 1.8125l4.546875 0z" fill-rule="nonzero"/><path fill="#ead1dc" d="m452.48032 250.00539l0 0c0 -3.986374 3.231598 -7.217987 7.217987 -7.217987l54.50891 0c1.9143066 0 3.7502441 0.7604675 5.103882 2.1141052c1.3536377 1.3536377 2.1140747 3.18956 2.1140747 5.103882l0 28.871109c0 3.9863892 -3.2315674 7.217987 -7.2179565 7.217987l-54.50891 0c-3.9863892 0 -7.217987 -3.231598 -7.217987 -7.217987z" fill-rule="evenodd"/><path stroke="#000000" stroke-width="1.0" stroke-linejoin="round" stroke-linecap="butt" d="m452.48032 250.00539l0 0c0 -3.986374 3.231598 -7.217987 7.217987 -7.217987l54.50891 0c1.9143066 0 3.7502441 0.7604675 5.103882 2.1141052c1.3536377 1.3536377 2.1140747 3.18956 2.1140747 5.103882l0 28.871109c0 3.9863892 -3.2315674 7.217987 -7.2179565 7.217987l-54.50891 0c-3.9863892 0 -7.217987 -3.231598 -7.217987 -7.217987z" fill-rule="evenodd"/><path fill="#000000" d="m475.18948 268.56406q-0.171875 1.078125 -0.984375 2.03125q-0.8125 0.953125 -2.515625 0.953125q-1.71875 0 -2.75 -1.109375q-1.03125 -1.109375 -1.03125 -3.109375q0 -1.71875 0.96875 -3.078125q0.984375 -1.359375 2.921875 -1.359375q0.8125 0 1.5 0.1875q0.703125 0.1875 1.328125 0.671875l0.328125 2.0l-1.09375 0.125l-0.3125 -1.40625q-0.75 -0.453125 -1.765625 -0.453125q-1.328125 0 -1.90625 0.953125q-0.578125 0.9375 -0.578125 2.28125q0 1.5 0.640625 2.34375q0.65625 0.828125 1.890625 0.828125q1.875 0 2.234375 -2.109375l1.125 0.25zm10.916046 2.796875l-4.21875 0l0 -1.0625l1.453125 0l0 -3.859375q0 -1.34375 -0.546875 -1.890625q-0.546875 -0.5625 -1.40625 -0.5625q-1.078125 0 -1.765625 0.75q-0.6875 0.734375 -0.71875 1.640625l0 3.921875l1.4375 0l0 1.0625l-4.203125 0l0 -1.0625l1.4375 0l0 -10.703125l-1.4375 0l0 -1.0625l2.765625 0l0 6.015625q0.921875 -1.65625 2.90625 -1.65625q1.21875 0 2.03125 0.75q0.828125 0.734375 0.828125 2.40625l0 4.25l1.4375 0l0 1.0625zm2.1193848 -10.453125l0 -1.6875l1.421875 0l0 1.6875l-1.421875 0zm2.890625 10.453125l-4.203125 0l0 -1.0625l1.453125 0l0 -6.171875l-1.5 0l0 -1.0625l2.796875 0l0 7.234375l1.453125 0l0 1.0625zm4.973755 0l-4.21875 0l0 -1.0625l1.453125 0l0 -10.703125l-1.46875 0l0 -1.0625l2.78125 0l0 11.765625l1.453125 0l0 1.0625zm10.35321 0l-2.75 0l0 -1.671875q-0.40625 0.734375 -1.125 1.296875q-0.703125 0.5625 -1.84375 0.5625q-1.59375 0 -2.578125 -1.09375q-0.984375 -1.09375 -0.984375 -3.03125q0 -1.65625 0.859375 -3.09375q0.859375 -1.4375 2.890625 -1.4375q1.953125 0 2.78125 1.515625l0 -4.8125l-2.015625 0l0 -1.0625l3.328125 0l0 11.765625l1.4375 0l0 1.0625zm-2.75 -3.671875l0 -1.328125q-0.03125 -1.046875 -0.765625 -1.6875q-0.71875 -0.65625 -1.71875 -0.65625q-1.375 0 -2.015625 1.015625q-0.640625 1.0 -0.640625 2.296875q0 1.53125 0.71875 2.3125q0.71875 0.78125 1.796875 0.78125q1.125 0 1.859375 -0.90625q0.734375 -0.90625 0.765625 -1.828125z" fill-rule="nonzero"/><path fill="#d0e0e3" d="m382.84512 352.36758l0 0c0 -3.9863586 3.2316284 -7.217987 7.2180176 -7.217987l74.63486 0c1.9143372 0 3.7502747 0.7604675 5.1039124 2.1141052c1.3536377 1.3536377 2.1141052 3.1895752 2.1141052 5.103882l0 28.871124c0 3.9863892 -3.2316284 7.217987 -7.2180176 7.217987l-74.63486 0l0 0c-3.9863892 0 -7.2180176 -3.231598 -7.2180176 -7.217987z" fill-rule="evenodd"/><path stroke="#000000" stroke-width="1.0" stroke-linejoin="round" stroke-linecap="butt" d="m382.84512 352.36758l0 0c0 -3.9863586 3.2316284 -7.217987 7.2180176 -7.217987l74.63486 0c1.9143372 0 3.7502747 0.7604675 5.1039124 2.1141052c1.3536377 1.3536377 2.1141052 3.1895752 2.1141052 5.103882l0 28.871124c0 3.9863892 -3.2316284 7.217987 -7.2180176 7.217987l-74.63486 0l0 0c-3.9863892 0 -7.2180176 -3.231598 -7.2180176 -7.217987z" fill-rule="evenodd"/><path fill="#000000" d="m410.18372 369.33252q0 1.109375 -0.390625 2.171875q-0.375 1.046875 -1.203125 1.734375q-0.828125 0.671875 -2.1875 0.671875q-1.890625 0 -2.75 -1.40625l0 4.125l1.921875 0l0 1.0625l-4.6875 0l0 -1.0625l1.46875 0l0 -10.140625l-1.5 0l0 -1.0625l2.796875 0l0 1.734375q0.375 -0.75 1.078125 -1.328125q0.71875 -0.578125 1.875 -0.578125q1.609375 0 2.59375 1.078125q0.984375 1.078125 0.984375 3.0zm-1.375 0.125q0 -1.5 -0.734375 -2.28125q-0.71875 -0.796875 -1.796875 -0.796875q-1.125 0 -1.859375 0.890625q-0.71875 0.875 -0.765625 1.828125l0 1.234375q0 1.046875 0.734375 1.75q0.734375 0.703125 1.75 0.703125q1.40625 0 2.03125 -1.0q0.640625 -1.015625 0.640625 -2.328125zm3.6046753 -3.40625q0.65625 -0.421875 1.375 -0.609375q0.734375 -0.1875 1.546875 -0.1875q2.96875 0 2.96875 2.78125l0 3.953125q0 0.890625 0.703125 0.890625q0.328125 0 0.5625 -0.109375l0.015625 0.859375q-0.5 0.28125 -1.078125 0.28125q-1.46875 0 -1.515625 -1.6875l0 -0.03125q-0.390625 0.671875 -1.109375 1.203125q-0.71875 0.515625 -1.71875 0.515625q-0.828125 0 -1.671875 -0.5q-0.84375 -0.515625 -0.84375 -1.828125q0 -1.578125 1.234375 -2.0625q1.25 -0.5 2.640625 -0.5q0.375 0 0.75 0.015625q0.390625 0.015625 0.71875 0.0625l0 -0.75q0 -0.890625 -0.390625 -1.453125q-0.375 -0.5625 -1.484375 -0.5625q-0.921875 0 -1.609375 0.34375l-0.3125 1.4375l-1.078125 -0.140625l0.296875 -1.921875zm4.578125 4.5625l0 -0.640625q-0.34375 -0.015625 -0.734375 -0.046875q-0.390625 -0.046875 -0.8125 -0.046875q-0.921875 0 -1.6875 0.296875q-0.75 0.28125 -0.75 1.25q0 0.796875 0.5 1.109375q0.5 0.296875 1.046875 0.296875q0.859375 0 1.609375 -0.59375q0.765625 -0.609375 0.828125 -1.625zm8.214111 -5.34375q0.890625 0 1.421875 0.4375l0.3125 2.078125l-1.0625 0.140625l-0.3125 -1.421875q-0.328125 -0.109375 -0.640625 -0.109375q-0.71875 0 -1.203125 0.609375q-0.484375 0.59375 -0.484375 1.5625l0 4.09375l1.921875 0l0 1.0625l-4.6875 0l0 -1.0625l1.453125 0l0 -6.171875l-1.5 0l0 -1.0625l2.734375 0l0 1.484375q0.234375 -0.6875 0.78125 -1.15625q0.5625 -0.484375 1.265625 -0.484375zm10.648132 6.0625q-0.15625 1.0625 -1.0625 1.828125q-0.890625 0.75 -2.421875 0.75q-1.75 0 -2.84375 -1.09375q-1.078125 -1.109375 -1.078125 -3.125q0 -1.9375 1.03125 -3.1875q1.03125 -1.25 2.78125 -1.25q1.71875 0 2.609375 1.078125q0.890625 1.078125 0.921875 2.5625q0 0.484375 -0.125 0.984375l-5.828125 0q0.109375 2.90625 2.625 2.90625q0.984375 0 1.546875 -0.453125q0.5625 -0.46875 0.75 -1.234375l1.09375 0.234375zm-1.453125 -2.421875q0.09375 -0.9375 -0.4375 -1.75q-0.53125 -0.828125 -1.734375 -0.828125q-1.15625 0 -1.703125 0.765625q-0.546875 0.765625 -0.671875 1.8125l4.546875 0zm12.627808 4.8125l-4.1875 0l0 -1.0625l1.4375 0l0 -3.859375q0 -1.34375 -0.546875 -1.890625q-0.546875 -0.5625 -1.375 -0.5625q-1.125 0 -1.8125 0.75q-0.671875 0.734375 -0.703125 1.6875l0 3.875l1.453125 0l0 1.0625l-4.21875 0l0 -1.0625l1.453125 0l0 -6.171875l-1.5 0l0 -1.0625l2.8125 0l0 1.46875q0.890625 -1.640625 2.90625 -1.640625q1.203125 0 2.015625 0.75q0.828125 0.734375 0.828125 2.40625l0 4.25l1.4375 0l0 1.0625zm7.002533 -2.234375q-0.328125 2.421875 -2.625 2.421875q-1.25 0 -1.921875 -0.703125q-0.65625 -0.71875 -0.65625 -1.921875l0 -4.8125l-1.34375 0l0 -1.046875l1.34375 0l0 -2.671875l1.296875 0l0 2.671875l3.25 0l0 1.046875l-3.25 0l0 4.640625q0 0.75 0.328125 1.203125q0.328125 0.453125 1.078125 0.453125q0.484375 0 0.90625 -0.296875q0.421875 -0.296875 0.609375 -1.3125l0.984375 0.328125z" fill-rule="nonzero"/><path fill="#000000" fill-opacity="0.0" d="m449.7874 345.68503l37.165344 -59.590546" fill-rule="evenodd"/><path stroke="#000000" stroke-width="1.0" stroke-linejoin="round" stroke-linecap="butt" d="m449.7874 345.68503l33.990173 -54.499542" fill-rule="evenodd"/><path fill="#000000" stroke="#000000" stroke-width="1.0" stroke-linecap="butt" d="m485.1791 292.05957l1.0000305 -4.7246704l-3.8030396 2.9765015z" fill-rule="evenodd"/><path fill="#d9d9d9" d="m369.53546 45.280983l0 0c0 -3.9863853 3.231598 -7.217991 7.217987 -7.217991l43.296295 0c1.9143372 0 3.7502441 0.7604637 5.103882 2.1141014c1.3536377 1.3536339 2.1141052 3.18956 2.1141052 5.1038895l0 28.871101c0 3.9863892 -3.231598 7.2179947 -7.217987 7.2179947l-43.296295 0l0 0c-3.9863892 0 -7.217987 -3.2316055 -7.217987 -7.2179947z" fill-rule="evenodd"/><path stroke="#000000" stroke-width="1.0" stroke-linejoin="round" stroke-linecap="butt" d="m369.53546 45.280983l0 0c0 -3.9863853 3.231598 -7.217991 7.217987 -7.217991l43.296295 0c1.9143372 0 3.7502441 0.7604637 5.103882 2.1141014c1.3536377 1.3536339 2.1141052 3.18956 2.1141052 5.1038895l0 28.871101c0 3.9863892 -3.231598 7.2179947 -7.217987 7.2179947l-43.296295 0l0 0c-3.9863892 0 -7.217987 -3.2316055 -7.217987 -7.2179947z" fill-rule="evenodd"/><path fill="#000000" d="m396.22562 58.05841l-1.09375 -0.09375l0.15625 -2.234375q0.5625 -0.59375 1.4375 -1.0q0.890625 -0.40625 1.84375 -0.40625q1.421875 0 2.421875 0.671875q1.015625 0.671875 1.015625 1.84375q0 0.953125 -0.578125 1.59375q-0.578125 0.625 -1.328125 1.109375q-0.75 0.46875 -1.328125 0.9375q-0.578125 0.46875 -0.578125 1.078125q0 0.765625 0.984375 0.765625l0 0.9375q-1.265625 0.078125 -1.828125 -0.390625q-0.546875 -0.484375 -0.546875 -1.203125q0 -0.828125 0.5625 -1.390625q0.5625 -0.5625 1.296875 -1.0q0.75 -0.453125 1.3125 -0.96875q0.578125 -0.515625 0.578125 -1.28125q0 -0.640625 -0.53125 -1.0625q-0.515625 -0.421875 -1.546875 -0.421875q-1.140625 0 -2.015625 0.71875l-0.234375 1.796875zm1.125 8.578125l0 -1.8125l1.671875 0l0 1.8125l-1.671875 0z" fill-rule="nonzero"/><path fill="#000000" fill-opacity="0.0" d="m486.95276 242.7874l-25.88977 -59.055115" fill-rule="evenodd"/><path stroke="#000000" stroke-width="1.0" stroke-linejoin="round" stroke-linecap="butt" d="m486.95276 242.7874l-23.480682 -53.559998" fill-rule="evenodd"/><path fill="#000000" stroke="#000000" stroke-width="1.0" stroke-linecap="butt" d="m464.9848 188.56422l-3.3348389 -3.4930573l0.3093567 4.8194275z" fill-rule="evenodd"/><path fill="#d9d9d9" d="m67.901665 101.94738l0 0c0 -3.8470764 3.1186752 -6.9657516 6.9657593 -6.9657516l99.737785 0c1.8474274 0 3.6192017 0.7338867 4.925522 2.0402222c1.3063354 1.3063278 2.0402222 3.0780945 2.0402222 4.9255295l0 6.162979l0 0c0 3.847084 -3.1186676 6.9657593 -6.965744 6.9657593l-99.737785 0c-3.847084 0 -6.9657593 -3.1186752 -6.9657593 -6.9657593z" fill-rule="evenodd"/><path stroke="#000000" stroke-width="1.0" stroke-linejoin="round" stroke-linecap="butt" stroke-dasharray="4.0,3.0" d="m67.901665 101.94738l0 0c0 -3.8470764 3.1186752 -6.9657516 6.9657593 -6.9657516l99.737785 0c1.8474274 0 3.6192017 0.7338867 4.925522 2.0402222c1.3063354 1.3063278 2.0402222 3.0780945 2.0402222 4.9255295l0 6.162979l0 0c0 3.847084 -3.1186676 6.9657593 -6.965744 6.9657593l-99.737785 0c-3.847084 0 -6.9657593 -3.1186752 -6.9657593 -6.9657593z" fill-rule="evenodd"/><path fill="#000000" d="m106.381996 104.685745l-0.8125 0l-2.09375 6.203125l-0.875 0l-2.171875 -5.4375l-0.078125 0l-2.125 5.4375l-0.828125 0l-2.1875 -6.203125l-0.78125 0l0 -0.921875l3.359375 0l0 0.921875l-1.359375 0l1.484375 4.484375l0.09375 0l2.109375 -5.40625l0.75 0l2.21875 5.40625l0.078125 0l1.3125 -4.484375l-1.296875 0l0 -0.921875l3.203125 0l0 0.921875zm1.4591522 -0.375q0.5625 -0.359375 1.1875 -0.515625q0.625 -0.171875 1.328125 -0.171875q2.546875 0 2.546875 2.390625l0 3.390625q0 0.765625 0.59375 0.765625q0.28125 0 0.484375 -0.09375l0.015625 0.734375q-0.421875 0.234375 -0.921875 0.234375q-1.265625 0 -1.296875 -1.4375l0 -0.03125q-0.34375 0.578125 -0.96875 1.03125q-0.609375 0.4375 -1.46875 0.4375q-0.703125 0 -1.4375 -0.421875q-0.71875 -0.4375 -0.71875 -1.578125q0 -1.34375 1.0625 -1.765625q1.0625 -0.421875 2.265625 -0.421875q0.3125 0 0.640625 0.015625q0.328125 0.015625 0.625 0.046875l0 -0.640625q0 -0.765625 -0.328125 -1.25q-0.328125 -0.484375 -1.296875 -0.484375q-0.78125 0 -1.375 0.296875l-0.265625 1.234375l-0.921875 -0.109375l0.25 -1.65625zm3.9375 3.90625l0 -0.546875q-0.3125 -0.015625 -0.65625 -0.046875q-0.328125 -0.03125 -0.671875 -0.03125q-0.796875 0 -1.453125 0.25q-0.640625 0.25 -0.640625 1.078125q0 0.6875 0.421875 0.953125q0.4375 0.25 0.90625 0.25q0.734375 0 1.375 -0.515625q0.65625 -0.515625 0.71875 -1.390625zm8.884262 0.609375q0 1.03125 -0.875 1.625q-0.875 0.59375 -2.15625 0.59375q-0.75 0 -1.5 -0.1875q-0.734375 -0.203125 -1.203125 -0.515625l0.21875 -1.609375l0.90625 0.09375l-0.046875 0.9375q0.734375 0.359375 1.578125 0.359375q0.75 0 1.328125 -0.296875q0.59375 -0.296875 0.59375 -0.90625q0 -0.59375 -0.453125 -0.828125q-0.4375 -0.25 -1.109375 -0.359375q-0.65625 -0.109375 -1.34375 -0.265625q-0.671875 -0.15625 -1.125 -0.546875q-0.4375 -0.40625 -0.4375 -1.234375q0 -1.140625 0.828125 -1.59375q0.84375 -0.46875 1.8125 -0.46875q0.734375 0 1.375 0.203125q0.65625 0.1875 1.109375 0.453125l0.171875 1.671875l-0.921875 0.109375l-0.1875 -1.15625q-0.671875 -0.359375 -1.453125 -0.359375q-0.671875 0 -1.109375 0.265625q-0.421875 0.25 -0.421875 0.796875q0 0.5625 0.4375 0.796875q0.453125 0.234375 1.109375 0.34375q0.65625 0.09375 1.3125 0.25q0.65625 0.15625 1.109375 0.578125q0.453125 0.40625 0.453125 1.25zm2.3048859 -6.890625l0 -1.46875l1.203125 0l0 1.46875l-1.203125 0zm2.46875 8.953125l-3.609375 0l0 -0.90625l1.25 0l0 -5.296875l-1.28125 0l0 -0.921875l2.390625 0l0 6.21875l1.25 0l0 0.90625zm1.151886 1.1875l6.9218674 0l0 0.8125l-6.9218674 0l0 -0.8125zm14.122139 -2.09375l0 -5.296875l-3.625 0l0 5.296875l1.625 0l0 0.90625l-3.984375 0l0 -0.90625l1.21875 0l0 -5.296875l-1.015625 0l0 -0.921875l1.015625 0l0 -1.1875q0 -1.375 0.90625 -2.109375q0.90625 -0.75 2.1875 -0.75q0.703125 0 1.328125 0.203125q0.625 0.203125 1.046875 0.5l0.265625 1.671875l-0.921875 0.109375l-0.296875 -1.203125q-0.1875 -0.109375 -0.59375 -0.21875q-0.390625 -0.125 -0.921875 -0.125q-0.796875 0 -1.328125 0.4375q-0.53125 0.421875 -0.53125 1.4375l0 1.234375l4.75 0l0 6.21875l1.234375 0l0 0.90625l-3.59375 0l0 -0.90625l1.234375 0zm6.635269 0.90625l-3.625 0l0 -0.90625l1.25 0l0 -9.1875l-1.265625 0l0 -0.921875l2.390625 0l0 10.109375l1.25 0l0 0.90625zm7.271637 -2.046875q-0.140625 0.90625 -0.90625 1.5625q-0.765625 0.640625 -2.078125 0.640625q-1.5 0 -2.4375 -0.9375q-0.921875 -0.953125 -0.921875 -2.671875q0 -1.671875 0.875 -2.734375q0.890625 -1.078125 2.390625 -1.078125q1.46875 0 2.234375 0.9375q0.765625 0.921875 0.78125 2.1875q0 0.40625 -0.09375 0.84375l-5.0 0q0.09375 2.5 2.25 2.5q0.84375 0 1.328125 -0.390625q0.484375 -0.40625 0.640625 -1.0625l0.9375 0.203125zm-1.234375 -2.078125q0.078125 -0.796875 -0.390625 -1.5q-0.453125 -0.71875 -1.484375 -0.71875q-1.0 0 -1.46875 0.65625q-0.453125 0.65625 -0.5625 1.5625l3.90625 0z" fill-rule="nonzero"/><path fill="#000000" fill-opacity="0.0" d="m93.16362 345.80316l-30.393703 -29.826782" fill-rule="evenodd"/><path stroke="#000000" stroke-width="1.0" stroke-linejoin="round" stroke-linecap="butt" d="m93.16362 345.80316l-26.111313 -25.624268" fill-rule="evenodd"/><path fill="#000000" stroke="#000000" stroke-width="1.0" stroke-linecap="butt" d="m68.20921 319.0l-4.3958893 -1.9996643l2.082077 4.3574524z" fill-rule="evenodd"/><path fill="#000000" fill-opacity="0.0" d="m124.73631 140.4262l0 -25.35434" fill-rule="evenodd"/><path stroke="#000000" stroke-width="1.0" stroke-linejoin="round" stroke-linecap="butt" d="m124.73631 140.4262l0 -19.354332" fill-rule="evenodd"/><path fill="#000000" stroke="#000000" stroke-width="1.0" stroke-linecap="butt" d="m126.38805 121.07186l-1.6517334 -4.538101l-1.6517334 4.538101z" fill-rule="evenodd"/><path fill="#000000" fill-opacity="0.0" d="m223.1142 242.79102l0 -24.724411" fill-rule="evenodd"/><path stroke="#000000" stroke-width="1.0" stroke-linejoin="round" stroke-linecap="butt" d="m223.1142 242.79102l0 -18.724411" fill-rule="evenodd"/><path fill="#000000" stroke="#000000" stroke-width="1.0" stroke-linecap="butt" d="m224.76593 224.0666l-1.6517334 -4.538101l-1.6517334 4.538101z" fill-rule="evenodd"/><path fill="#000000" fill-opacity="0.0" d="m435.2205 140.14174l-36.81891 -58.77166" fill-rule="evenodd"/><path stroke="#000000" stroke-width="1.0" stroke-linejoin="round" stroke-linecap="butt" d="m435.22046 140.14174l-33.633514 -53.687042" fill-rule="evenodd"/><path fill="#000000" stroke="#000000" stroke-width="1.0" stroke-linecap="butt" d="m402.9867 85.5778l-3.8089905 -2.9688492l1.0095215 4.7226486z" fill-rule="evenodd"/><path fill="#000000" fill-opacity="0.0" d="m403.8058 345.09186l-18.047241 -263.74802" fill-rule="evenodd"/><path stroke="#000000" stroke-width="1.0" stroke-linejoin="round" stroke-linecap="butt" d="m403.8058 345.09186l-17.637634 -257.76202" fill-rule="evenodd"/><path fill="#000000" stroke="#000000" stroke-width="1.0" stroke-linecap="butt" d="m387.816 87.21708l-1.9576721 -4.414757l-1.3380737 4.6402664z" fill-rule="evenodd"/><path fill="#000000" fill-opacity="0.0" d="m427.26505 345.9065l0 -161.4488" fill-rule="evenodd"/><path stroke="#000000" stroke-width="1.0" stroke-linejoin="round" stroke-linecap="butt" d="m427.26505 345.9065l0 -155.44882" fill-rule="evenodd"/><path fill="#000000" stroke="#000000" stroke-width="1.0" stroke-linecap="butt" d="m428.91678 190.45767l-1.6517334 -4.538086l-1.6517334 4.538086z" fill-rule="evenodd"/><path fill="#d9d9d9" d="m166.27962 204.93689l0 0c0 -3.8470917 3.1186829 -6.9657593 6.9657593 -6.9657593l99.73778 0c1.8474426 0 3.6192017 0.7338867 4.925537 2.0402222c1.3063354 1.3063354 2.0402222 3.0780945 2.0402222 4.925537l0 6.162979l0 0c0 3.8470764 -3.1186829 6.965744 -6.9657593 6.965744l-99.73778 0c-3.8470764 0 -6.9657593 -3.1186676 -6.9657593 -6.965744z" fill-rule="evenodd"/><path stroke="#000000" stroke-width="1.0" stroke-linejoin="round" stroke-linecap="butt" stroke-dasharray="4.0,3.0" d="m166.27962 204.93689l0 0c0 -3.8470917 3.1186829 -6.9657593 6.9657593 -6.9657593l99.73778 0c1.8474426 0 3.6192017 0.7338867 4.925537 2.0402222c1.3063354 1.3063354 2.0402222 3.0780945 2.0402222 4.925537l0 6.162979l0 0c0 3.8470764 -3.1186829 6.965744 -6.9657593 6.965744l-99.73778 0c-3.8470764 0 -6.9657593 -3.1186676 -6.9657593 -6.965744z" fill-rule="evenodd"/><path fill="#000000" d="m204.75995 207.67525l-0.8125 0l-2.09375 6.203125l-0.875 0l-2.171875 -5.4375l-0.078125 0l-2.125 5.4375l-0.828125 0l-2.1875 -6.203125l-0.78125 0l0 -0.921875l3.359375 0l0 0.921875l-1.359375 0l1.484375 4.484375l0.09375 0l2.109375 -5.40625l0.75 0l2.21875 5.40625l0.078125 0l1.3125 -4.484375l-1.296875 0l0 -0.921875l3.203125 0l0 0.921875zm1.4591522 -0.375q0.5625 -0.359375 1.1875 -0.515625q0.625 -0.171875 1.328125 -0.171875q2.546875 0 2.546875 2.390625l0 3.390625q0 0.765625 0.59375 0.765625q0.28125 0 0.484375 -0.09375l0.015625 0.734375q-0.421875 0.234375 -0.921875 0.234375q-1.265625 0 -1.296875 -1.4375l0 -0.03125q-0.34375 0.578125 -0.96875 1.03125q-0.609375 0.4375 -1.46875 0.4375q-0.703125 0 -1.4375 -0.421875q-0.71875 -0.4375 -0.71875 -1.578125q0 -1.34375 1.0625 -1.765625q1.0625 -0.421875 2.265625 -0.421875q0.3125 0 0.640625 0.015625q0.328125 0.015625 0.625 0.046875l0 -0.640625q0 -0.765625 -0.328125 -1.25q-0.328125 -0.484375 -1.296875 -0.484375q-0.78125 0 -1.375 0.296875l-0.265625 1.234375l-0.921875 -0.109375l0.25 -1.65625zm3.9375 3.90625l0 -0.546875q-0.3125 -0.015625 -0.65625 -0.046875q-0.328125 -0.03125 -0.671875 -0.03125q-0.796875 0 -1.453125 0.25q-0.640625 0.25 -0.640625 1.078125q0 0.6875 0.421875 0.953125q0.4375 0.25 0.90625 0.25q0.734375 0 1.375 -0.515625q0.65625 -0.515625 0.71875 -1.390625zm8.884262 0.609375q0 1.03125 -0.875 1.625q-0.875 0.59375 -2.15625 0.59375q-0.75 0 -1.5 -0.1875q-0.734375 -0.203125 -1.203125 -0.515625l0.21875 -1.609375l0.90625 0.09375l-0.046875 0.9375q0.734375 0.359375 1.578125 0.359375q0.75 0 1.328125 -0.296875q0.59375 -0.296875 0.59375 -0.90625q0 -0.59375 -0.453125 -0.828125q-0.4375 -0.25 -1.109375 -0.359375q-0.65625 -0.109375 -1.34375 -0.265625q-0.671875 -0.15625 -1.125 -0.546875q-0.4375 -0.40625 -0.4375 -1.234375q0 -1.140625 0.828125 -1.59375q0.84375 -0.46875 1.8125 -0.46875q0.734375 0 1.375 0.203125q0.65625 0.1875 1.109375 0.453125l0.171875 1.671875l-0.921875 0.109375l-0.1875 -1.15625q-0.671875 -0.359375 -1.453125 -0.359375q-0.671875 0 -1.109375 0.265625q-0.421875 0.25 -0.421875 0.796875q0 0.5625 0.4375 0.796875q0.453125 0.234375 1.109375 0.34375q0.65625 0.09375 1.3125 0.25q0.65625 0.15625 1.109375 0.578125q0.453125 0.40625 0.453125 1.25zm2.3048859 -6.890625l0 -1.46875l1.203125 0l0 1.46875l-1.203125 0zm2.46875 8.953125l-3.609375 0l0 -0.90625l1.25 0l0 -5.296875l-1.28125 0l0 -0.921875l2.390625 0l0 6.21875l1.25 0l0 0.90625zm1.151886 1.1875l6.921875 0l0 0.8125l-6.921875 0l0 -0.8125zm14.122147 -2.09375l0 -5.296875l-3.625 0l0 5.296875l1.625 0l0 0.90625l-3.984375 0l0 -0.90625l1.21875 0l0 -5.296875l-1.015625 0l0 -0.921875l1.015625 0l0 -1.1875q0 -1.375 0.90625 -2.109375q0.90625 -0.75 2.1875 -0.75q0.703125 0 1.328125 0.203125q0.625 0.203125 1.046875 0.5l0.265625 1.671875l-0.921875 0.109375l-0.296875 -1.203125q-0.1875 -0.109375 -0.59375 -0.21875q-0.390625 -0.125 -0.921875 -0.125q-0.796875 0 -1.328125 0.4375q-0.53125 0.421875 -0.53125 1.4375l0 1.234375l4.75 0l0 6.21875l1.234375 0l0 0.90625l-3.59375 0l0 -0.90625l1.234375 0zm6.635269 0.90625l-3.625 0l0 -0.90625l1.25 0l0 -9.1875l-1.265625 0l0 -0.921875l2.390625 0l0 10.109375l1.25 0l0 0.90625zm7.271637 -2.046875q-0.140625 0.90625 -0.90625 1.5625q-0.765625 0.640625 -2.078125 0.640625q-1.5 0 -2.4375 -0.9375q-0.921875 -0.953125 -0.921875 -2.671875q0 -1.671875 0.875 -2.734375q0.890625 -1.078125 2.390625 -1.078125q1.46875 0 2.234375 0.9375q0.765625 0.921875 0.78125 2.1875q0 0.40625 -0.09375 0.84375l-5.0 0q0.09375 2.5 2.25 2.5q0.84375 0 1.328125 -0.390625q0.484375 -0.40625 0.640625 -1.0625l0.9375 0.203125zm-1.234375 -2.078125q0.078125 -0.796875 -0.390625 -1.5q-0.453125 -0.71875 -1.484375 -0.71875q-1.0 0 -1.46875 0.65625q-0.453125 0.65625 -0.5625 1.5625l3.90625 0z" fill-rule="nonzero"/><path fill="#d9d9d9" d="m5.9352703 302.84766l0 0c0 -3.847107 3.1186743 -6.9657593 6.9657545 -6.9657593l99.737785 0c1.8474274 0 3.6192017 0.7338867 4.9255295 2.0402222c1.3063354 1.3063354 2.0402222 3.0780945 2.0402222 4.925537l0 6.162964l0 0c0 3.8470764 -3.1186752 6.9657593 -6.9657516 6.9657593l-99.737785 0c-3.8470802 0 -6.9657545 -3.1186829 -6.9657545 -6.9657593z" fill-rule="evenodd"/><path stroke="#000000" stroke-width="1.0" stroke-linejoin="round" stroke-linecap="butt" stroke-dasharray="4.0,3.0" d="m5.9352703 302.84766l0 0c0 -3.847107 3.1186743 -6.9657593 6.9657545 -6.9657593l99.737785 0c1.8474274 0 3.6192017 0.7338867 4.9255295 2.0402222c1.3063354 1.3063354 2.0402222 3.0780945 2.0402222 4.925537l0 6.162964l0 0c0 3.8470764 -3.1186752 6.9657593 -6.9657516 6.9657593l-99.737785 0c-3.8470802 0 -6.9657545 -3.1186829 -6.9657545 -6.9657593z" fill-rule="evenodd"/><path fill="#000000" d="m44.4156 305.586l-0.8125 0l-2.09375 6.203125l-0.875 0l-2.171875 -5.4375l-0.078125 0l-2.125 5.4375l-0.828125 0l-2.1875 -6.203125l-0.78125 0l0 -0.921875l3.359375 0l0 0.921875l-1.359375 0l1.484375 4.484375l0.09375 0l2.109375 -5.40625l0.75 0l2.21875 5.40625l0.078125 0l1.3125 -4.484375l-1.296875 0l0 -0.921875l3.203125 0l0 0.921875zm1.4591522 -0.375q0.5625 -0.359375 1.1875 -0.515625q0.625 -0.171875 1.328125 -0.171875q2.546875 0 2.546875 2.390625l0 3.390625q0 0.765625 0.59375 0.765625q0.28125 0 0.484375 -0.09375l0.015625 0.734375q-0.421875 0.234375 -0.921875 0.234375q-1.265625 0 -1.296875 -1.4375l0 -0.03125q-0.34375 0.578125 -0.96875 1.03125q-0.609375 0.4375 -1.46875 0.4375q-0.703125 0 -1.4375 -0.421875q-0.71875 -0.4375 -0.71875 -1.578125q0 -1.34375 1.0625 -1.765625q1.0625 -0.421875 2.265625 -0.421875q0.3125 0 0.640625 0.015625q0.328125 0.015625 0.625 0.046875l0 -0.640625q0 -0.765625 -0.328125 -1.25q-0.328125 -0.484375 -1.296875 -0.484375q-0.78125 0 -1.375 0.296875l-0.265625 1.234375l-0.921875 -0.109375l0.25 -1.65625zm3.9375 3.90625l0 -0.546875q-0.3125 -0.015625 -0.65625 -0.046875q-0.328125 -0.03125 -0.671875 -0.03125q-0.796875 0 -1.453125 0.25q-0.640625 0.25 -0.640625 1.078125q0 0.6875 0.421875 0.953125q0.4375 0.25 0.90625 0.25q0.734375 0 1.375 -0.515625q0.65625 -0.515625 0.71875 -1.390625zm8.884262 0.609375q0 1.03125 -0.875 1.625q-0.875 0.59375 -2.15625 0.59375q-0.75 0 -1.5 -0.1875q-0.734375 -0.203125 -1.203125 -0.515625l0.21875 -1.609375l0.90625 0.09375l-0.046875 0.9375q0.734375 0.359375 1.578125 0.359375q0.75 0 1.328125 -0.296875q0.59375 -0.296875 0.59375 -0.90625q0 -0.59375 -0.453125 -0.828125q-0.4375 -0.25 -1.109375 -0.359375q-0.65625 -0.109375 -1.34375 -0.265625q-0.671875 -0.15625 -1.125 -0.546875q-0.4375 -0.40625 -0.4375 -1.234375q0 -1.140625 0.828125 -1.59375q0.84375 -0.46875 1.8125 -0.46875q0.734375 0 1.375 0.203125q0.65625 0.1875 1.109375 0.453125l0.171875 1.671875l-0.921875 0.109375l-0.1875 -1.15625q-0.671875 -0.359375 -1.453125 -0.359375q-0.671875 0 -1.109375 0.265625q-0.421875 0.25 -0.421875 0.796875q0 0.5625 0.4375 0.796875q0.453125 0.234375 1.109375 0.34375q0.65625 0.09375 1.3125 0.25q0.65625 0.15625 1.109375 0.578125q0.453125 0.40625 0.453125 1.25zm2.3048859 -6.890625l0 -1.46875l1.203125 0l0 1.46875l-1.203125 0zm2.46875 8.953125l-3.609375 0l0 -0.90625l1.25 0l0 -5.296875l-1.28125 0l0 -0.921875l2.390625 0l0 6.21875l1.25 0l0 0.90625zm1.1518822 1.1875l6.921875 0l0 0.8125l-6.921875 0l0 -0.8125zm14.122147 -2.09375l0 -5.296875l-3.625 0l0 5.296875l1.625 0l0 0.90625l-3.984375 0l0 -0.90625l1.21875 0l0 -5.296875l-1.015625 0l0 -0.921875l1.015625 0l0 -1.1875q0 -1.375 0.90625 -2.109375q0.90625 -0.75 2.1875 -0.75q0.703125 0 1.328125 0.203125q0.625 0.203125 1.046875 0.5l0.265625 1.671875l-0.921875 0.109375l-0.296875 -1.203125q-0.1875 -0.109375 -0.59375 -0.21875q-0.390625 -0.125 -0.921875 -0.125q-0.796875 0 -1.328125 0.4375q-0.53125 0.421875 -0.53125 1.4375l0 1.234375l4.75 0l0 6.21875l1.234375 0l0 0.90625l-3.59375 0l0 -0.90625l1.234375 0zm6.635269 0.90625l-3.625 0l0 -0.90625l1.25 0l0 -9.1875l-1.265625 0l0 -0.921875l2.390625 0l0 10.109375l1.25 0l0 0.90625zm7.271637 -2.046875q-0.140625 0.90625 -0.90625 1.5625q-0.765625 0.640625 -2.078125 0.640625q-1.5 0 -2.4375 -0.9375q-0.921875 -0.953125 -0.921875 -2.671875q0 -1.671875 0.875 -2.734375q0.890625 -1.078125 2.390625 -1.078125q1.46875 0 2.234375 0.9375q0.765625 0.921875 0.78125 2.1875q0 0.40625 -0.09375 0.84375l-5.0 0q0.09375 2.5 2.25 2.5q0.84375 0 1.328125 -0.390625q0.484375 -0.40625 0.640625 -1.0625l0.9375 0.203125zm-1.234375 -2.078125q0.078125 -0.796875 -0.390625 -1.5q-0.453125 -0.71875 -1.484375 -0.71875q-1.0 0 -1.46875 0.65625q-0.453125 0.65625 -0.5625 1.5625l3.90625 0z" fill-rule="nonzero"/><path fill="#000000" fill-opacity="0.0" d="m-30.821522 -10.0l330.07877 0l0 49.889763l-330.07877 0z" fill-rule="evenodd"/><path fill="#000000" d="m41.05704 13.529373q0 1.75 -1.25 2.671875q-1.234375 0.90625 -3.078125 0.90625q-2.53125 0 -3.890625 -0.984375l0.25 -2.390625l1.125 0.109375l-0.078125 1.53125q0.609375 0.3125 1.21875 0.4375q0.625 0.109375 1.296875 0.109375q1.203125 0 2.0625 -0.515625q0.875 -0.515625 0.875 -1.75q0 -1.375 -0.953125 -1.796875q-0.953125 -0.421875 -2.078125 -0.6875q-0.859375 -0.1875 -1.703125 -0.46875q-0.828125 -0.296875 -1.390625 -0.921875q-0.5625 -0.625 -0.5625 -1.8125q0 -1.71875 1.140625 -2.53125q1.15625 -0.828125 2.71875 -0.828125q1.015625 0 2.03125 0.28125q1.03125 0.28125 1.609375 0.71875l0.109375 2.40625l-1.109375 0.125l-0.1875 -1.8125q-0.578125 -0.296875 -1.1875 -0.390625q-0.59375 -0.109375 -1.125 -0.109375q-1.140625 0 -1.84375 0.515625q-0.703125 0.5 -0.703125 1.46875q0 1.140625 0.84375 1.53125q0.84375 0.390625 1.875 0.640625q0.8125 0.1875 1.734375 0.484375q0.921875 0.28125 1.578125 0.984375q0.671875 0.6875 0.671875 2.078125zm7.6312866 1.15625q-0.328125 2.421875 -2.625 2.421875q-1.25 0 -1.921875 -0.703125q-0.65625 -0.71875 -0.65625 -1.921875l0 -4.8125l-1.34375 0l0 -1.046875l1.34375 0l0 -2.671875l1.296875 0l0 2.671875l3.25 0l0 1.046875l-3.25 0l0 4.640625q0 0.75 0.328125 1.203125q0.328125 0.453125 1.078125 0.453125q0.484375 0 0.90625 -0.296875q0.421875 -0.296875 0.609375 -1.3125l0.984375 0.328125zm1.608963 -5.4375q0.65625 -0.421875 1.375 -0.609375q0.734375 -0.1875 1.546875 -0.1875q2.96875 0 2.96875 2.78125l0 3.953125q0 0.890625 0.703125 0.890625q0.328125 0 0.5625 -0.109375l0.015625 0.859375q-0.5 0.28125 -1.078125 0.28125q-1.46875 0 -1.515625 -1.6875l0 -0.03125q-0.390625 0.671875 -1.109375 1.203125q-0.71875 0.515625 -1.71875 0.515625q-0.828125 0 -1.671875 -0.5q-0.84375 -0.515625 -0.84375 -1.828125q0 -1.578125 1.234375 -2.0625q1.25 -0.5 2.640625 -0.5q0.375 0 0.75 0.015625q0.390625 0.015625 0.71875 0.0625l0 -0.75q0 -0.890625 -0.390625 -1.453125q-0.375 -0.5625 -1.484375 -0.5625q-0.921875 0 -1.609375 0.34375l-0.3125 1.4375l-1.078125 -0.140625l0.296875 -1.921875zm4.578125 4.5625l0 -0.640625q-0.34375 -0.015625 -0.734375 -0.046875q-0.390625 -0.046875 -0.8125 -0.046875q-0.921875 0 -1.6875 0.296875q-0.75 0.28125 -0.75 1.25q0 0.796875 0.5 1.109375q0.5 0.296875 1.046875 0.296875q0.859375 0 1.609375 -0.59375q0.765625 -0.609375 0.828125 -1.625zm9.745342 0.875q-0.328125 2.421875 -2.6249962 2.421875q-1.25 0 -1.921875 -0.703125q-0.65625 -0.71875 -0.65625 -1.921875l0 -4.8125l-1.34375 0l0 -1.046875l1.34375 0l0 -2.671875l1.296875 0l0 2.671875l3.25 0l0 1.046875l-3.25 0l0 4.640625q0 0.75 0.328125 1.203125q0.328125 0.453125 1.078125 0.453125q0.484375 0 0.90625 -0.296875q0.421875 -0.296875 0.609375 -1.3125l0.9843712 0.328125zm2.046463 -8.21875l0 -1.6875l1.421875 0l0 1.6875l-1.421875 0zm2.890625 10.453125l-4.203125 0l0 -1.0625l1.453125 0l0 -6.171875l-1.5 0l0 -1.0625l2.796875 0l0 7.234375l1.453125 0l0 1.0625zm8.36438 -2.796875q-0.171875 1.078125 -0.984375 2.03125q-0.8125 0.953125 -2.515625 0.953125q-1.71875 0 -2.75 -1.109375q-1.03125 -1.109375 -1.03125 -3.109375q0 -1.71875 0.96875 -3.078125q0.984375 -1.359375 2.921875 -1.359375q0.8125 0 1.5 0.1875q0.703125 0.1875 1.328125 0.671875l0.328125 2.0l-1.09375 0.125l-0.3125 -1.40625q-0.75 -0.453125 -1.765625 -0.453125q-1.328125 0 -1.90625 0.953125q-0.578125 0.9375 -0.578125 2.28125q0 1.5 0.640625 2.34375q0.65625 0.828125 1.890625 0.828125q1.875 0 2.234375 -2.109375l1.125 0.25zm17.276031 -3.28125q0 2.65625 -1.640625 4.375q-1.625 1.703125 -4.5 1.703125l-5.484375 0l0 -1.171875l1.53125 0l0 -9.78125l-1.53125 0l0 -1.171875l5.4375 0q2.953125 0 4.5625 1.703125q1.625 1.703125 1.625 4.34375zm-1.453125 0.015625q0 -2.203125 -1.234375 -3.546875q-1.21875 -1.34375 -3.53125 -1.34375l-2.515625 0l0 9.78125l2.515625 0q2.3125 0 3.53125 -1.3125q1.234375 -1.328125 1.234375 -3.578125zm10.308922 3.671875q-0.15625 1.0625 -1.0625 1.828125q-0.890625 0.75 -2.421875 0.75q-1.75 0 -2.84375 -1.09375q-1.0781326 -1.109375 -1.0781326 -3.125q0 -1.9375 1.0312576 -3.1875q1.03125 -1.25 2.78125 -1.25q1.71875 0 2.609375 1.078125q0.890625 1.078125 0.921875 2.5625q0 0.484375 -0.125 0.984375l-5.828125 0q0.109375 2.90625 2.625 2.90625q0.984375 0 1.546875 -0.453125q0.5625 -0.46875 0.75 -1.234375l1.09375 0.234375zm-1.453125 -2.421875q0.09375 -0.9375 -0.4375 -1.75q-0.53125 -0.828125 -1.734375 -0.828125q-1.15625 0 -1.703125 0.765625q-0.546875 0.765625 -0.671875 1.8125l4.546875 0zm11.659058 0.421875q0 1.109375 -0.390625 2.171875q-0.375 1.046875 -1.203125 1.734375q-0.828125 0.671875 -2.1875 0.671875q-1.890625 0 -2.75 -1.40625l0 4.125l1.921875 0l0 1.0625l-4.6875 0l0 -1.0625l1.46875 0l0 -10.140625l-1.5 0l0 -1.0625l2.796875 0l0 1.734375q0.375 -0.75 1.078125 -1.328125q0.71875 -0.578125 1.875 -0.578125q1.609375 0 2.59375 1.078125q0.984375 1.078125 0.984375 3.0zm-1.375 0.125q0 -1.5 -0.734375 -2.28125q-0.71875 -0.796875 -1.796875 -0.796875q-1.125 0 -1.859375 0.890625q-0.71875 0.875 -0.765625 1.828125l0 1.234375q0 1.046875 0.734375 1.75q0.734375 0.703125 1.75 0.703125q1.40625 0 2.03125 -1.0q0.640625 -1.015625 0.640625 -2.328125zm10.198425 1.875q-0.15625 1.0625 -1.0625 1.828125q-0.890625 0.75 -2.421875 0.75q-1.75 0 -2.84375 -1.09375q-1.078125 -1.109375 -1.078125 -3.125q0 -1.9375 1.03125 -3.1875q1.03125 -1.25 2.78125 -1.25q1.71875 0 2.609375 1.078125q0.890625 1.078125 0.921875 2.5625q0 0.484375 -0.125 0.984375l-5.828125 0q0.109375 2.90625 2.625 2.90625q0.984375 0 1.546875 -0.453125q0.5625 -0.46875 0.75 -1.234375l1.09375 0.234375zm-1.453125 -2.421875q0.09375 -0.9375 -0.4375 -1.75q-0.53125 -0.828125 -1.734375 -0.828125q-1.15625 0 -1.703125 0.765625q-0.546875 0.765625 -0.671875 1.8125l4.546875 0zm12.627815 4.8125l-4.1875 0l0 -1.0625l1.4375 0l0 -3.859375q0 -1.34375 -0.546875 -1.890625q-0.546875 -0.5625 -1.375 -0.5625q-1.125 0 -1.8125076 0.75q-0.671875 0.734375 -0.703125 1.6875l0 3.875l1.4531326 0l0 1.0625l-4.2187576 0l0 -1.0625l1.453125 0l0 -6.171875l-1.5 0l0 -1.0625l2.8125 0l0 1.46875q0.890625 -1.640625 2.9062576 -1.640625q1.203125 0 2.015625 0.75q0.828125 0.734375 0.828125 2.40625l0 4.25l1.4375 0l0 1.0625zm10.158783 0l-2.75 0l0 -1.671875q-0.40625 0.734375 -1.125 1.296875q-0.703125 0.5625 -1.84375 0.5625q-1.59375 0 -2.578125 -1.09375q-0.984375 -1.09375 -0.984375 -3.03125q0 -1.65625 0.859375 -3.09375q0.859375 -1.4375 2.890625 -1.4375q1.953125 0 2.78125 1.515625l0 -4.8125l-2.015625 0l0 -1.0625l3.328125 0l0 11.765625l1.4375 0l0 1.0625zm-2.75 -3.671875l0 -1.328125q-0.03125 -1.046875 -0.765625 -1.6875q-0.71875 -0.65625 -1.71875 -0.65625q-1.375 0 -2.015625 1.015625q-0.640625 1.0 -0.640625 2.296875q0 1.53125 0.71875 2.3125q0.71875 0.78125 1.796875 0.78125q1.125 0 1.859375 -0.90625q0.734375 -0.90625 0.765625 -1.828125zm11.117279 1.28125q-0.15625 1.0625 -1.0625 1.828125q-0.890625 0.75 -2.421875 0.75q-1.75 0 -2.84375 -1.09375q-1.078125 -1.109375 -1.078125 -3.125q0 -1.9375 1.03125 -3.1875q1.03125 -1.25 2.78125 -1.25q1.71875 0 2.609375 1.078125q0.890625 1.078125 0.921875 2.5625q0 0.484375 -0.125 0.984375l-5.828125 0q0.109375 2.90625 2.625 2.90625q0.984375 0 1.546875 -0.453125q0.5625 -0.46875 0.75 -1.234375l1.09375 0.234375zm-1.453125 -2.421875q0.09375 -0.9375 -0.4375 -1.75q-0.53125 -0.828125 -1.734375 -0.828125q-1.15625 0 -1.703125 0.765625q-0.546875 0.765625 -0.671875 1.8125l4.546875 0zm12.627808 4.8125l-4.1875 0l0 -1.0625l1.4375 0l0 -3.859375q0 -1.34375 -0.546875 -1.890625q-0.546875 -0.5625 -1.375 -0.5625q-1.125 0 -1.8125 0.75q-0.671875 0.734375 -0.703125 1.6875l0 3.875l1.453125 0l0 1.0625l-4.21875 0l0 -1.0625l1.453125 0l0 -6.171875l-1.5 0l0 -1.0625l2.8125 0l0 1.46875q0.890625 -1.640625 2.90625 -1.640625q1.203125 0 2.015625 0.75q0.828125 0.734375 0.828125 2.40625l0 4.25l1.4375 0l0 1.0625zm8.158783 -2.796875q-0.171875 1.078125 -0.984375 2.03125q-0.8125 0.953125 -2.515625 0.953125q-1.71875 0 -2.75 -1.109375q-1.03125 -1.109375 -1.03125 -3.109375q0 -1.71875 0.96875 -3.078125q0.984375 -1.359375 2.921875 -1.359375q0.8125 0 1.5 0.1875q0.703125 0.1875 1.328125 0.671875l0.328125 2.0l-1.09375 0.125l-0.3125 -1.40625q-0.75 -0.453125 -1.765625 -0.453125q-1.328125 0 -1.90625 0.953125q-0.578125 0.9375 -0.578125 2.28125q0 1.5 0.640625 2.34375q0.65625 0.828125 1.890625 0.828125q1.875 0 2.234375 -2.109375l1.125 0.25zm9.994202 -4.4375l-0.984375 0l-2.921875 7.234375l-1.125 2.90625l1.421875 0l0 1.0625l-4.21875 0l0 -1.0625l1.546875 0l1.078125 -2.921875l-3.015625 -7.21875l-0.984375 0l0 -1.0625l3.84375 0l0 1.0625l-1.46875 0l2.34375 5.578125l0.109375 0l2.0625 -5.578125l-1.34375 0l0 -1.0625l3.65625 0l0 1.0625zm16.351562 2.203125l-0.953125 0l0 5.03125l-1.046875 0l-0.171875 -1.671875q-0.53125 0.796875 -1.53125 1.328125q-1.0 0.53125 -2.34375 0.53125q-2.5 0 -4.046875 -1.78125q-1.546875 -1.796875 -1.546875 -4.40625q0 -1.765625 0.75 -3.1875q0.75 -1.421875 2.078125 -2.265625q1.34375 -0.859375 3.078125 -0.859375q1.453125 0 2.546875 0.40625q1.09375 0.390625 1.78125 1.015625l0.34375 2.265625l-1.15625 0.140625l-0.375 -1.71875q-0.5 -0.34375 -1.21875 -0.609375q-0.71875 -0.265625 -1.84375 -0.265625q-2.03125 0 -3.28125 1.40625q-1.25 1.390625 -1.25 3.609375q0 2.25 1.1875 3.640625q1.203125 1.375 3.1875 1.375q1.671875 0 2.578125 -0.90625q0.921875 -0.90625 0.921875 -2.0l0 -1.078125l-2.890625 0l0 -1.21875l5.203125 0l0 1.21875zm5.797699 -3.421875q0.890625 0 1.421875 0.4375l0.3125 2.078125l-1.0625 0.140625l-0.3125 -1.421875q-0.328125 -0.109375 -0.640625 -0.109375q-0.71875 0 -1.203125 0.609375q-0.484375 0.59375 -0.484375 1.5625l0 4.09375l1.921875 0l0 1.0625l-4.6875 0l0 -1.0625l1.453125 0l0 -6.171875l-1.5 0l0 -1.0625l2.734375 0l0 1.484375q0.234375 -0.6875 0.78125 -1.15625q0.5625 -0.484375 1.265625 -0.484375zm4.0543823 0.78125q0.65625 -0.421875 1.375 -0.609375q0.734375 -0.1875 1.546875 -0.1875q2.96875 0 2.96875 2.78125l0 3.953125q0 0.890625 0.703125 0.890625q0.328125 0 0.5625 -0.109375l0.015625 0.859375q-0.5 0.28125 -1.078125 0.28125q-1.46875 0 -1.515625 -1.6875l0 -0.03125q-0.390625 0.671875 -1.109375 1.203125q-0.71875 0.515625 -1.71875 0.515625q-0.828125 0 -1.671875 -0.5q-0.84375 -0.515625 -0.84375 -1.828125q0 -1.578125 1.234375 -2.0625q1.25 -0.5 2.640625 -0.5q0.375 0 0.75 0.015625q0.390625 0.015625 0.71875 0.0625l0 -0.75q0 -0.890625 -0.390625 -1.453125q-0.375 -0.5625 -1.484375 -0.5625q-0.921875 0 -1.609375 0.34375l-0.3125 1.4375l-1.078125 -0.140625l0.296875 -1.921875zm4.578125 4.5625l0 -0.640625q-0.34375 -0.015625 -0.734375 -0.046875q-0.390625 -0.046875 -0.8125 -0.046875q-0.921875 0 -1.6875 0.296875q-0.75 0.28125 -0.75 1.25q0 0.796875 0.5 1.109375q0.5 0.296875 1.046875 0.296875q0.859375 0 1.609375 -0.59375q0.765625 -0.609375 0.828125 -1.625zm12.464111 -1.28125q0 1.109375 -0.390625 2.171875q-0.375 1.046875 -1.203125 1.734375q-0.828125 0.671875 -2.1875 0.671875q-1.890625 0 -2.75 -1.40625l0 4.125l1.921875 0l0 1.0625l-4.6875 0l0 -1.0625l1.46875 0l0 -10.140625l-1.5 0l0 -1.0625l2.796875 0l0 1.734375q0.375 -0.75 1.078125 -1.328125q0.71875 -0.578125 1.875 -0.578125q1.609375 0 2.59375 1.078125q0.984375 1.078125 0.984375 3.0zm-1.375 0.125q0 -1.5 -0.734375 -2.28125q-0.71875 -0.796875 -1.796875 -0.796875q-1.125 0 -1.859375 0.890625q-0.71875 0.875 -0.765625 1.828125l0 1.234375q0 1.046875 0.734375 1.75q0.734375 0.703125 1.75 0.703125q1.40625 0 2.03125 -1.0q0.640625 -1.015625 0.640625 -2.328125zm12.3703 4.265625l-4.21875 0l0 -1.0625l1.453125 0l0 -3.859375q0 -1.34375 -0.546875 -1.890625q-0.546875 -0.5625 -1.40625 -0.5625q-1.078125 0 -1.765625 0.75q-0.6875 0.734375 -0.71875 1.640625l0 3.921875l1.4375 0l0 1.0625l-4.203125 0l0 -1.0625l1.4375 0l0 -10.703125l-1.4375 0l0 -1.0625l2.765625 0l0 6.015625q0.921875 -1.65625 2.90625 -1.65625q1.21875 0 2.03125 0.75q0.828125 0.734375 0.828125 2.40625l0 4.25l1.4375 0l0 1.0625z" fill-rule="nonzero"/><path fill="#000000" fill-opacity="0.0" d="m321.5223 -10.0l231.05515 0l0 49.889763l-231.05515 0z" fill-rule="evenodd"/><path fill="#000000" d="m349.3933 10.841873q0 2.65625 -1.640625 4.375q-1.625 1.703125 -4.5 1.703125l-5.484375 0l0 -1.171875l1.53125 0l0 -9.78125l-1.53125 0l0 -1.171875l5.4375 0q2.953125 0 4.5625 1.703125q1.625 1.703125 1.625 4.34375zm-1.453125 0.015625q0 -2.203125 -1.234375 -3.546875q-1.21875 -1.34375 -3.53125 -1.34375l-2.515625 0l0 9.78125l2.515625 0q2.3125 0 3.53125 -1.3125q1.234375 -1.328125 1.234375 -3.578125zm11.558929 -1.171875l-0.984375 0l-2.921875 7.234375l-1.125 2.90625l1.421875 0l0 1.0625l-4.21875 0l0 -1.0625l1.546875 0l1.078125 -2.921875l-3.015625 -7.21875l-0.984375 0l0 -1.0625l3.84375 0l0 1.0625l-1.46875 0l2.34375 5.578125l0.109375 0l2.0625 -5.578125l-1.34375 0l0 -1.0625l3.65625 0l0 1.0625zm10.689575 7.234375l-4.1875 0l0 -1.0625l1.4375 0l0 -3.859375q0 -1.34375 -0.546875 -1.890625q-0.546875 -0.5625 -1.375 -0.5625q-1.125 0 -1.8125 0.75q-0.671875 0.734375 -0.703125 1.6875l0 3.875l1.453125 0l0 1.0625l-4.21875 0l0 -1.0625l1.453125 0l0 -6.171875l-1.5 0l0 -1.0625l2.8125 0l0 1.46875q0.890625 -1.640625 2.90625 -1.640625q1.203125 0 2.015625 0.75q0.828125 0.734375 0.828125 2.40625l0 4.25l1.4375 0l0 1.0625zm1.690033 -7.671875q0.65625 -0.421875 1.375 -0.609375q0.734375 -0.1875 1.546875 -0.1875q2.96875 0 2.96875 2.78125l0 3.953125q0 0.890625 0.703125 0.890625q0.328125 0 0.5625 -0.109375l0.015625 0.859375q-0.5 0.28125 -1.078125 0.28125q-1.46875 0 -1.515625 -1.6875l0 -0.03125q-0.390625 0.671875 -1.109375 1.203125q-0.71875 0.515625 -1.71875 0.515625q-0.828125 0 -1.671875 -0.5q-0.84375 -0.515625 -0.84375 -1.828125q0 -1.578125 1.234375 -2.0625q1.25 -0.5 2.640625 -0.5q0.375 0 0.75 0.015625q0.390625 0.015625 0.71875 0.0625l0 -0.75q0 -0.890625 -0.390625 -1.453125q-0.375 -0.5625 -1.484375 -0.5625q-0.921875 0 -1.609375 0.34375l-0.3125 1.4375l-1.078125 -0.140625l0.296875 -1.921875zm4.578125 4.5625l0 -0.640625q-0.34375 -0.015625 -0.734375 -0.046875q-0.390625 -0.046875 -0.8125 -0.046875q-0.921875 0 -1.6875 0.296875q-0.75 0.28125 -0.75 1.25q0 0.796875 0.5 1.109375q0.5 0.296875 1.046875 0.296875q0.859375 0 1.609375 -0.59375q0.765625 -0.609375 0.828125 -1.625zm18.854736 3.109375l-3.984375 0l0 -1.0625l1.21875 0l0 -3.859375q0 -1.34375 -0.53125 -1.890625q-0.53125 -0.5625 -1.359375 -0.5625q-1.125 0 -1.75 0.859375q-0.609375 0.859375 -0.625 1.640625l0 3.8125l1.421875 0l0 1.0625l-3.953125 0l0 -1.0625l1.203125 0l0 -3.859375q0 -1.359375 -0.53125 -1.90625q-0.515625 -0.546875 -1.3125 -0.546875q-1.15625 0 -1.765625 0.84375q-0.609375 0.828125 -0.640625 1.625l0 3.84375l1.515625 0l0 1.0625l-4.28125 0l0 -1.0625l1.453125 0l0 -6.171875l-1.46875 0l0 -1.0625l2.78125 0l0 1.546875q0.40625 -0.75 1.09375 -1.234375q0.6875 -0.484375 1.671875 -0.484375q0.984375 0 1.6875 0.484375q0.71875 0.484375 0.984375 1.515625q0.375 -0.875 1.109375 -1.4375q0.734375 -0.5625 1.828125 -0.5625q1.1875 0 1.984375 0.75q0.796875 0.734375 0.796875 2.40625l0 4.25l1.453125 0l0 1.0625zm2.1159668 -10.453125l0 -1.6875l1.421875 0l0 1.6875l-1.421875 0zm2.890625 10.453125l-4.203125 0l0 -1.0625l1.453125 0l0 -6.171875l-1.5 0l0 -1.0625l2.796875 0l0 7.234375l1.453125 0l0 1.0625zm8.36438 -2.796875q-0.171875 1.078125 -0.984375 2.03125q-0.8125 0.953125 -2.515625 0.953125q-1.71875 0 -2.75 -1.109375q-1.03125 -1.109375 -1.03125 -3.109375q0 -1.71875 0.96875 -3.078125q0.984375 -1.359375 2.921875 -1.359375q0.8125 0 1.5 0.1875q0.703125 0.1875 1.328125 0.671875l0.328125 2.0l-1.09375 0.125l-0.3125 -1.40625q-0.75 -0.453125 -1.765625 -0.453125q-1.328125 0 -1.90625 0.953125q-0.578125 0.9375 -0.578125 2.28125q0 1.5 0.640625 2.34375q0.65625 0.828125 1.890625 0.828125q1.875 0 2.234375 -2.109375l1.125 0.25zm10.0729065 2.796875l-4.421875 0l0 -1.1875l1.53125 0l0 -9.75l-1.53125 0l0 -1.1875l4.421875 0l0 1.1875l-1.515625 0l0 9.75l1.515625 0l0 1.1875zm11.319794 0l-4.1875 0l0 -1.0625l1.4375 0l0 -3.859375q0 -1.34375 -0.546875 -1.890625q-0.546875 -0.5625 -1.375 -0.5625q-1.125 0 -1.8125 0.75q-0.671875 0.734375 -0.703125 1.6875l0 3.875l1.453125 0l0 1.0625l-4.21875 0l0 -1.0625l1.453125 0l0 -6.171875l-1.5 0l0 -1.0625l2.8125 0l0 1.46875q0.890625 -1.640625 2.90625 -1.640625q1.203125 0 2.015625 0.75q0.828125 0.734375 0.828125 2.40625l0 4.25l1.4375 0l0 1.0625zm7.611908 -2.40625q0 1.21875 -1.015625 1.90625q-1.015625 0.6875 -2.5 0.6875q-0.875 0 -1.75 -0.234375q-0.859375 -0.234375 -1.40625 -0.59375l0.265625 -1.875l1.046875 0.109375l-0.0625 1.09375q0.859375 0.421875 1.84375 0.421875q0.875 0 1.546875 -0.34375q0.6875 -0.34375 0.6875 -1.0625q0 -0.6875 -0.515625 -0.96875q-0.515625 -0.28125 -1.296875 -0.40625q-0.78125 -0.140625 -1.5625 -0.3125q-0.78125 -0.1875 -1.3125 -0.640625q-0.515625 -0.46875 -0.515625 -1.4375q0 -1.328125 0.96875 -1.859375q0.96875 -0.546875 2.109375 -0.546875q0.859375 0 1.609375 0.234375q0.765625 0.21875 1.28125 0.53125l0.21875 1.9375l-1.09375 0.125l-0.203125 -1.34375q-0.78125 -0.40625 -1.703125 -0.40625q-0.78125 0 -1.28125 0.296875q-0.5 0.296875 -0.5 0.9375q0 0.65625 0.515625 0.921875q0.53125 0.265625 1.296875 0.390625q0.765625 0.125 1.53125 0.3125q0.765625 0.1875 1.28125 0.671875q0.515625 0.46875 0.515625 1.453125zm7.5620728 0.171875q-0.328125 2.421875 -2.625 2.421875q-1.25 0 -1.921875 -0.703125q-0.65625 -0.71875 -0.65625 -1.921875l0 -4.8125l-1.34375 0l0 -1.046875l1.34375 0l0 -2.671875l1.296875 0l0 2.671875l3.25 0l0 1.046875l-3.25 0l0 4.640625q0 0.75 0.328125 1.203125q0.328125 0.453125 1.078125 0.453125q0.484375 0 0.90625 -0.296875q0.421875 -0.296875 0.609375 -1.3125l0.984375 0.328125zm1.6089478 -5.4375q0.65625 -0.421875 1.375 -0.609375q0.734375 -0.1875 1.546875 -0.1875q2.96875 0 2.96875 2.78125l0 3.953125q0 0.890625 0.703125 0.890625q0.328125 0 0.5625 -0.109375l0.015625 0.859375q-0.5 0.28125 -1.078125 0.28125q-1.46875 0 -1.515625 -1.6875l0 -0.03125q-0.390625 0.671875 -1.109375 1.203125q-0.71875 0.515625 -1.71875 0.515625q-0.828125 0 -1.671875 -0.5q-0.84375 -0.515625 -0.84375 -1.828125q0 -1.578125 1.234375 -2.0625q1.25 -0.5 2.640625 -0.5q0.375 0 0.75 0.015625q0.390625 0.015625 0.71875 0.0625l0 -0.75q0 -0.890625 -0.390625 -1.453125q-0.375 -0.5625 -1.484375 -0.5625q-0.921875 0 -1.609375 0.34375l-0.3125 1.4375l-1.078125 -0.140625l0.296875 -1.921875zm4.578125 4.5625l0 -0.640625q-0.34375 -0.015625 -0.734375 -0.046875q-0.390625 -0.046875 -0.8125 -0.046875q-0.921875 0 -1.6875 0.296875q-0.75 0.28125 -0.75 1.25q0 0.796875 0.5 1.109375q0.5 0.296875 1.046875 0.296875q0.859375 0 1.609375 -0.59375q0.765625 -0.609375 0.828125 -1.625zm13.432861 3.109375l-4.1875 0l0 -1.0625l1.4375 0l0 -3.859375q0 -1.34375 -0.546875 -1.890625q-0.546875 -0.5625 -1.375 -0.5625q-1.125 0 -1.8125 0.75q-0.671875 0.734375 -0.703125 1.6875l0 3.875l1.453125 0l0 1.0625l-4.21875 0l0 -1.0625l1.453125 0l0 -6.171875l-1.5 0l0 -1.0625l2.8125 0l0 1.46875q0.890625 -1.640625 2.90625 -1.640625q1.203125 0 2.015625 0.75q0.828125 0.734375 0.828125 2.40625l0 4.25l1.4375 0l0 1.0625zm8.158783 -2.796875q-0.171875 1.078125 -0.984375 2.03125q-0.8125 0.953125 -2.515625 0.953125q-1.71875 0 -2.75 -1.109375q-1.03125 -1.109375 -1.03125 -3.109375q0 -1.71875 0.96875 -3.078125q0.984375 -1.359375 2.921875 -1.359375q0.8125 0 1.5 0.1875q0.703125 0.1875 1.328125 0.671875l0.328125 2.0l-1.09375 0.125l-0.3125 -1.40625q-0.75 -0.453125 -1.765625 -0.453125q-1.328125 0 -1.90625 0.953125q-0.578125 0.9375 -0.578125 2.28125q0 1.5 0.640625 2.34375q0.65625 0.828125 1.890625 0.828125q1.875 0 2.234375 -2.109375l1.125 0.25zm8.744171 0.40625q-0.15625 1.0625 -1.0625 1.828125q-0.890625 0.75 -2.421875 0.75q-1.75 0 -2.84375 -1.09375q-1.078125 -1.109375 -1.078125 -3.125q0 -1.9375 1.03125 -3.1875q1.03125 -1.25 2.78125 -1.25q1.71875 0 2.609375 1.078125q0.890625 1.078125 0.921875 2.5625q0 0.484375 -0.125 0.984375l-5.828125 0q0.109375 2.90625 2.625 2.90625q0.984375 0 1.546875 -0.453125q0.5625 -0.46875 0.75 -1.234375l1.09375 0.234375zm-1.453125 -2.421875q0.09375 -0.9375 -0.4375 -1.75q-0.53125 -0.828125 -1.734375 -0.828125q-1.15625 0 -1.703125 0.765625q-0.546875 0.765625 -0.671875 1.8125l4.546875 0zm18.737793 -0.21875l-0.953125 0l0 5.03125l-1.046875 0l-0.171875 -1.671875q-0.53125 0.796875 -1.53125 1.328125q-1.0 0.53125 -2.34375 0.53125q-2.5 0 -4.046875 -1.78125q-1.546875 -1.796875 -1.546875 -4.40625q0 -1.765625 0.75 -3.1875q0.75 -1.421875 2.078125 -2.265625q1.34375 -0.859375 3.078125 -0.859375q1.453125 0 2.546875 0.40625q1.09375 0.390625 1.78125 1.015625l0.34375 2.265625l-1.15625 0.140625l-0.375 -1.71875q-0.5 -0.34375 -1.21875 -0.609375q-0.71875 -0.265625 -1.84375 -0.265625q-2.03125 0 -3.28125 1.40625q-1.25 1.390625 -1.25 3.609375q0 2.25 1.1875 3.640625q1.203125 1.375 3.1875 1.375q1.671875 0 2.578125 -0.90625q0.921875 -0.90625 0.921875 -2.0l0 -1.078125l-2.890625 0l0 -1.21875l5.203125 0l0 1.21875zm5.797699 -3.421875q0.890625 0 1.421875 0.4375l0.3125 2.078125l-1.0625 0.140625l-0.3125 -1.421875q-0.328125 -0.109375 -0.640625 -0.109375q-0.71875 0 -1.203125 0.609375q-0.484375 0.59375 -0.484375 1.5625l0 4.09375l1.921875 0l0 1.0625l-4.6875 0l0 -1.0625l1.453125 0l0 -6.171875l-1.5 0l0 -1.0625l2.734375 0l0 1.484375q0.234375 -0.6875 0.78125 -1.15625q0.5625 -0.484375 1.265625 -0.484375zm4.0543823 0.78125q0.65625 -0.421875 1.375 -0.609375q0.734375 -0.1875 1.546875 -0.1875q2.96875 0 2.96875 2.78125l0 3.953125q0 0.890625 0.703125 0.890625q0.328125 0 0.5625 -0.109375l0.015625 0.859375q-0.5 0.28125 -1.078125 0.28125q-1.46875 0 -1.515625 -1.6875l0 -0.03125q-0.390625 0.671875 -1.109375 1.203125q-0.71875 0.515625 -1.71875 0.515625q-0.828125 0 -1.671875 -0.5q-0.84375 -0.515625 -0.84375 -1.828125q0 -1.578125 1.234375 -2.0625q1.25 -0.5 2.640625 -0.5q0.375 0 0.75 0.015625q0.390625 0.015625 0.71875 0.0625l0 -0.75q0 -0.890625 -0.390625 -1.453125q-0.375 -0.5625 -1.484375 -0.5625q-0.921875 0 -1.609375 0.34375l-0.3125 1.4375l-1.078125 -0.140625l0.296875 -1.921875zm4.578125 4.5625l0 -0.640625q-0.34375 -0.015625 -0.734375 -0.046875q-0.390625 -0.046875 -0.8125 -0.046875q-0.921875 0 -1.6875 0.296875q-0.75 0.28125 -0.75 1.25q0 0.796875 0.5 1.109375q0.5 0.296875 1.046875 0.296875q0.859375 0 1.609375 -0.59375q0.765625 -0.609375 0.828125 -1.625zm12.464111 -1.28125q0 1.109375 -0.390625 2.171875q-0.375 1.046875 -1.203125 1.734375q-0.828125 0.671875 -2.1875 0.671875q-1.890625 0 -2.75 -1.40625l0 4.125l1.921875 0l0 1.0625l-4.6875 0l0 -1.0625l1.46875 0l0 -10.140625l-1.5 0l0 -1.0625l2.796875 0l0 1.734375q0.375 -0.75 1.078125 -1.328125q0.71875 -0.578125 1.875 -0.578125q1.609375 0 2.59375 1.078125q0.984375 1.078125 0.984375 3.0zm-1.375 0.125q0 -1.5 -0.734375 -2.28125q-0.71875 -0.796875 -1.796875 -0.796875q-1.125 0 -1.859375 0.890625q-0.71875 0.875 -0.765625 1.828125l0 1.234375q0 1.046875 0.734375 1.75q0.734375 0.703125 1.75 0.703125q1.40625 0 2.03125 -1.0q0.640625 -1.015625 0.640625 -2.328125zm12.3703 4.265625l-4.21875 0l0 -1.0625l1.453125 0l0 -3.859375q0 -1.34375 -0.546875 -1.890625q-0.546875 -0.5625 -1.40625 -0.5625q-1.078125 0 -1.765625 0.75q-0.6875 0.734375 -0.71875 1.640625l0 3.921875l1.4375 0l0 1.0625l-4.203125 0l0 -1.0625l1.4375 0l0 -10.703125l-1.4375 0l0 -1.0625l2.765625 0l0 6.015625q0.921875 -1.65625 2.90625 -1.65625q1.21875 0 2.03125 0.75q0.828125 0.734375 0.828125 2.40625l0 4.25l1.4375 0l0 1.0625z" fill-rule="nonzero"/></g></svg>